<?xml version="1.0" standalone="no"?>
<!DOCTYPE svg PUBLIC "-//W3C//DTD SVG 1.1//EN" "http://www.w3.org/Graphics/SVG/1.1/DTD/svg11.dtd" >
<svg xmlns="http://www.w3.org/2000/svg">
<metadata>Generated by IcoMoon</metadata>
<defs>
<font id="icomoon" horiz-adv-x="1024">
<font-face units-per-em="1024" ascent="960" descent="-64" />
<missing-glyph horiz-adv-x="1024" />
<glyph unicode="&#x20;" horiz-adv-x="512" d="" />
<glyph unicode="&#xe900;" glyph-name="ic_left-page_svg" horiz-adv-x="590" d="M515.692-64l74.783 74.715-440.976 437.251 440.976 437.251-74.783 74.783-515.692-512.034 515.692-511.966z" />
<glyph unicode="&#xe901;" glyph-name="ic_mobile_left_page_svg" d="M512-64v292.535h512v438.857h-512v292.571l-512-512z" />
<glyph unicode="&#xe902;" glyph-name="ic_top_svg" horiz-adv-x="884" d="M884.364 512h-672.675l308.689 357.423-78.196 90.577-442.182-512 442.182-512 78.196 90.531-308.689 357.469h672.675z" />
<glyph unicode="&#xe903;" glyph-name="arrow_b" d="M0 625.582l23.962 32.85 507.187-369.807 467.661 368.497 25.19-31.949-491.95-387.604z" />
<glyph unicode="&#xe904;" glyph-name="arrow_l" d="M689.582 960l32.85-23.962-369.807-507.187 368.497-467.661-31.949-25.19-387.604 491.95z" />
<glyph unicode="&#xe905;" glyph-name="arrow_r" d="M334.418-64l-32.85 23.962 369.807 507.187-368.497 467.661 31.949 25.19 387.604-491.93z" />
<glyph unicode="&#xe906;" glyph-name="arrow_t" d="M1024.041 270.377l-23.962-32.85-507.187 369.807-467.661-368.497-25.211 31.949 491.95 387.604z" />
<glyph unicode="&#xe907;" glyph-name="line" horiz-adv-x="1094" d="M1043.124 705.836c-44.765 76.985-108.722 134.109-185.999 176.792-96.495 53.304-200.566 76.976-282.538 77.368-110.611 0.119-190.85-13.791-267.985-44.092-88.309-34.694-164.744-86.241-223.918-161.336-47.356-60.091-76.378-127.947-82.278-204.616-6.314-82.062 13.899-157.883 58.575-226.729 67.649-104.24 165.531-168.022 281.387-206.947 40.971-13.765 83.159-22.258 126.012-27.721 24.24-3.090 40.032-16.971 44.469-38.598 2.417-11.784 1.374-23.669-0.195-35.498-2.294-17.289-7.157-34.167-8.293-51.635-1.553-23.84 6.931-30.963 29.852-24.616 32.54 9.009 61.673 25.509 90.347 42.635 108.202 64.622 208.331 140.248 302.801 223.51 33.709 29.708 66.915 59.801 93.441 96.557 41.764 57.871 67.99 121.654 73.584 193.049 5.929 75.649-11.173 146.36-49.267 211.885zM367.379 406.080c-1.86-11.836-11.028-21.285-22.829-23.291-3.088-0.524-6.268-0.717-9.406-0.723-33.961-0.048-67.921-0.057-101.883-0.022-21.76 0.023-33.21 11.47-33.226 33.179-0.025 33.96-0.006 67.921-0.004 101.881 0.001 34.446-0.117 68.893 0.045 103.338 0.098 20.948 16.486 34.175 36.952 30.225 12.956-2.501 22.473-13.918 22.718-28.225 0.315-18.431 0.109-36.87 0.112-55.306 0.006-39.297 0.121-78.596-0.128-117.892-0.036-5.764 1.585-7.354 7.3-7.278 23.040 0.31 46.090 0.306 69.133 0.073 21.735-0.233 34.496-15.136 31.218-35.982zM450.283 413.247c-0.022-18.692-12.098-31.262-29.823-31.196-17.653 0.066-29.829 12.783-29.837 31.373-0.032 69.375-0.055 138.75 0.023 208.127 0.017 15.109 10.473 27.504 24.168 29.255 16.98 2.171 30.137-5.814 34.586-20.8 0.998-3.359 0.871-6.714 0.874-10.088 0.034-34.445 0.020-68.89 0.022-103.335-0.015-34.423 0.015-68.875-0.029-103.313zM709.12 413.567c-0.114-15.024-7.239-25.678-19.78-29.933-13.606-4.616-26.807-0.24-35.804 12.039-32.54 44.412-65.031 88.861-97.576 133.268-1.355 1.85-2.265 4.188-5.361 5.505-0.135-2.883-0.355-5.415-0.357-7.947-0.025-37.628 0.112-75.255-0.067-112.881-0.111-22.702-19.038-36.999-39.743-30.086-11.29 3.77-18.109 11.769-19.691 23.779-0.379 2.876-0.446 5.807-0.447 8.711-0.023 67.001-0.019 134.001-0.015 201.003 0 5.096-0.022 10.193 1.824 15.072 3.936 10.403 11.409 16.936 22.304 18.593 12.024 1.828 22.594-1.254 30.258-11.561 33.004-44.377 66.038-88.734 99.109-133.060 1.353-1.814 2.085-4.34 4.815-5.116 1.307 2.364 0.623 4.809 0.626 7.122 0.058 37.627 0.064 75.255 0.035 112.881-0.009 11.634 4.471 20.963 14.806 26.487 10.293 5.501 21.049 5.451 31.204-0.651 10.41-6.254 13.912-16.185 13.902-27.85-0.044-54.62-0.019-109.239-0.019-163.856 0.029-13.825 0.102-27.664 0-41.503zM804.974 480.505c0.38-10.908 0.351-21.846 0.013-32.755-0.157-5.042 1.356-6.602 6.496-6.551 24.265 0.236 48.535 0.219 72.803-0.003 12.815-0.119 23.369-7.899 27.201-19.285 4.123-12.251 0.504-25.719-9.096-33.687-5.645-4.688-12.2-6.713-19.502-6.707-35.673 0.031-71.349-0.034-107.023 0.035-18.135 0.034-30.168 11.612-30.65 29.81-0.351 13.338-0.084 26.692-0.087 40.040-0.003 21.599 0 43.197 0 64.796 0 33.491-0.017 66.98 0.006 100.471 0.015 23.212 11.054 34.146 34.432 34.154 34.218 0.009 68.437 0.101 102.655-0.035 21.231-0.084 34.509-16.952 29.909-37.593-2.89-12.971-14.050-21.984-27.894-22.064-24.025-0.138-48.053-0.24-72.074 0.099-5.827 0.082-7.418-1.639-7.192-7.285 0.424-10.661 0.37-21.36 0.013-32.025-0.163-4.861 1.444-6.054 6.127-6.013 24.267 0.216 48.536 0.192 72.804 0.057 15.737-0.087 27.335-10.95 29.091-26.838 1.655-14.959-7.846-28.612-22.517-32.098-2.554-0.607-5.281-0.667-7.928-0.673-23.783-0.050-47.566-0.133-71.349 0.061-4.531 0.029-6.41-0.903-6.235-5.914z" />
<glyph unicode="&#xe908;" glyph-name="home3" d="M1024 352l-192 192v288h-128v-160l-192 192-512-512v-32h128v-320h320v192h128v-192h320v320h128z" />
<glyph unicode="&#xe909;" glyph-name="cancel" d="M512 320.022l-384.022-384.022-127.978 128.065 384.022 383.935-384.022 384.022 128.065 127.891 383.935-383.935 384.022 384.022 127.978-128.065-384.022-383.935 384.022-384.022-128.065-127.978-383.935 384.022z" />
<glyph unicode="&#xe90a;" glyph-name="ic-add" d="M471.397 485.963v432.114c0 21.684 17.599 39.283 39.283 39.283s39.283-17.599 39.283-39.283v-432.114h432.114c21.747 0 39.283-17.599 39.283-39.283s-17.536-39.283-39.283-39.283h-432.114v-432.114c0-21.747-17.599-39.283-39.283-39.283s-39.283 17.536-39.283 39.283v432.114h-432.114c-21.684 0-39.283 17.599-39.283 39.283s17.599 39.283 39.283 39.283h432.114z" />
<glyph unicode="&#xe90b;" glyph-name="ic_bank" horiz-adv-x="953" d="M449.248 950.017l-433.56-278.106c-29.95-18.54-15.688-64.178 18.54-64.178h877.103c39.933 0 55.621 52.769 21.393 74.162l-417.872 268.123c-19.967 12.836-45.638 12.836-65.604 0zM104.111 549.259h171.142v-484.903h-171.142v484.903zM396.479 549.259h171.142v-484.903h-171.142v484.903zM688.847 549.259h171.142v-484.903h-171.142v484.903zM18.54 7.309h927.019v-71.309h-927.019v71.309z" />
<glyph unicode="&#xe90c;" glyph-name="ic_barcode" horiz-adv-x="1227" d="M0 959.999v-1024h103.551v1024h-103.551zM1024 959.999v-1024h203.266v1024h-203.266zM203.266 959.999v-816.899h203.266v816.899h-203.266zM816.899 959.999v-816.899h103.551v816.899h-103.551zM510.082 959.999v-816.899h203.266v816.899h-203.266zM203.266 39.55h103.551v-103.551h-103.551v103.551zM410.367 39.55h103.551v-103.551h-103.551v103.551zM613.633 39.55h103.551v-103.551h-103.551v103.551zM816.899 39.55h103.551v-103.551h-103.551v103.551z" />
<glyph unicode="&#xe90d;" glyph-name="ic-check" d="M410.897 102.639c-16.316 0-32.631 6.281-45.124 18.637l-360.926 360.858c-24.917 24.849-24.917 65.263 0 90.18s65.331 24.917 90.18 0l315.802-315.733 517.939 518.007c24.986 24.917 65.399 24.917 90.249 0 24.917-24.917 24.917-65.331 0-90.18l-563.132-563.063c-12.356-12.425-28.672-18.705-44.988-18.705z" />
<glyph unicode="&#xe90e;" glyph-name="ic-search" d="M1010.048 74.688l-199.36 199.36c-8.682 8.661-20.665 14.016-33.898 14.016-0.053 0-0.105 0-0.158 0h-32.632c54.903 69.578 88.065 158.532 88.065 255.23 0 0.271 0 0.541-0.001 0.812v-0.042c0 229.76-186.24 415.936-416 415.936-229.733 0-415.968-186.235-415.968-415.968s186.235-415.968 415.968-415.968v0c0.233 0 0.509-0.001 0.785-0.001 96.684 0 185.628 33.136 256.096 88.67l-0.881-0.67v-32.64c0-12.8 4.992-24.96 14.016-33.92l199.36-199.424c8.663-8.72 20.661-14.118 33.92-14.118s25.257 5.397 33.917 14.115l0.003 0.003 56.576 56.64c8.723 8.721 14.119 20.771 14.119 34.081 0 13.214-5.318 25.186-13.931 33.892l0.004-0.004zM416 288.064c-141.44 0-256 114.368-256 256 0 141.376 114.432 256 256 256 141.44 0 256-114.432 256-256 0-141.44-114.368-256-256-256z" />
<glyph unicode="&#xe90f;" glyph-name="ic_business" horiz-adv-x="909" d="M808.306-64h-708.085c-54.468 0-100.221 45.753-100.221 100.221 0 198.264 128.545 372.562 313.736 431.387-76.255 47.932-124.187 132.902-124.187 224.409 0 148.153 117.651 267.983 265.804 267.983 145.974 0 265.804-119.83 265.804-265.804 0-93.685-47.932-176.477-124.187-224.409 185.191-61.004 313.736-233.123 313.736-431.387-2.179-56.647-45.753-102.4-102.4-102.4zM455.353 916.426c-122.009 0-222.23-100.221-222.23-222.23 0-95.864 61.004-180.834 152.511-211.336 8.715-2.179 15.251-13.072 15.251-21.787 0-10.894-8.715-17.43-17.43-19.609-198.264-34.86-339.881-206.979-339.881-405.243 0-30.502 26.145-56.647 56.647-56.647h708.085c30.502 0 56.647 26.145 56.647 56.647 0 198.264-141.617 368.204-337.702 405.243-8.715 2.179-17.43 10.894-17.43 19.609 0 10.894 4.357 19.609 15.251 21.787 91.506 30.502 152.511 115.472 152.511 211.336 0 122.009-100.221 222.23-222.23 222.23zM448.817 352.136h13.072c17.43 0 32.681-15.251 32.681-32.681v0c0-17.43-15.251-32.681-32.681-32.681h-13.072c-17.43 0-32.681 15.251-32.681 32.681v0c0 17.43 15.251 32.681 32.681 32.681zM448.817 247.557h13.072c17.43 0 32.681-15.251 32.681-32.681v-156.868c0-17.43-15.251-32.681-32.681-32.681h-13.072c-17.43 0-32.681 15.251-32.681 32.681v156.868c0 17.43 15.251 32.681 32.681 32.681z" />
<glyph unicode="&#xe910;" glyph-name="ic-time" d="M512 960c-282.88 0-512-229.12-512-512s229.12-512 512-512 512 229.12 512 512-229.12 512-512 512zM512 35.072c-227.968-0.064-412.864 184.704-412.928 412.672 0 0.064 0 0.128 0 0.256-0.064 227.968 184.704 412.864 412.672 412.928 0.064 0 0.128 0 0.256 0 228.032 0.064 412.864-184.704 412.928-412.672 0-0.064 0-0.128 0-0.256 0.064-228.032-184.704-412.864-412.672-412.928-0.128 0-0.192 0-0.256 0zM639.616 250.624l-175.36 127.36c-6.336 4.672-10.048 12.096-10.048 20.032v339.008c0 13.632 11.136 24.768 24.768 24.768h66.048c13.632 0 24.768-11.136 24.768-24.768v-292.48l137.984-100.416c11.136-8 13.376-23.488 5.376-34.688l-38.912-53.44c-8.128-10.944-23.552-13.376-34.624-5.376z" />
<glyph unicode="&#xe911;" glyph-name="openid" d="M841.148 228.454c-76.083 0-137.728-61.611-137.728-137.694 0-76.049 61.679-137.694 137.728-137.694s137.694 61.747 137.694 137.694c0 76.117-61.679 137.694-137.694 137.694zM919.654 139.196l-88.951-114.893c-2.56-3.345-6.485-5.359-10.82-5.598h-0.717c-4.062 0-7.817 1.604-10.65 4.574l-45.329 48.094c-5.598 5.905-5.222 15.189 0.717 20.685 5.598 5.257 15.326 4.983 20.617-0.717l33.553-35.669 78.711 101.581c4.881 6.315 14.541 7.27 20.617 2.458 3.072-2.458 4.983-5.905 5.393-9.796 0.512-3.925-0.58-7.646-3.14-10.718zM723.319 201.66c-3.004 0.922-6.417 2.15-9.284 3.14-30.276 9.83-56.354 18.295-69.018 25.361-24.781 13.517-35.738 29.935-35.738 53.248v70.758c7.748 6.724 14.473 13.449 19.627 19.627 18.534 22.255 33.417 82.057 42.906 129.98 4.745 6.861 8.021 15.326 9.489 24.883l9.045 56.457c2.423 15.189-5.12 36.625-14.711 50.415 1.673 10.342 4.335 27.785 4.54 37.069 0.58 18.739-19.217 65.946-22.050 72.021-8.738 18.671-51.132 53.897-51.61 54.272-5.803 4.813-17.34 10.138-42.257 21.231-10.411 4.642-26.214 11.639-28.297 12.902l-5.086 4.642c-9.216 8.363-37.205 33.792-44.305 44.51-2.867 4.335-5.871 16.384-7.919 24.337-4.13 16.486-7.1 28.399-18.876 33.075l-10.615 3.345-8.158-5.188c-20.173-13.005-19.729-76.356-19.661-78.95-5.7 5.939-15.974 16.282-29.764 11.571-14.097-4.847-15.701-20.173-16.418-27.58-0.956-9.079-2.662-17.51-3.891-21.709-24.166-16.623-41.54-29.935-48.333-40.653-1.877-3.004-4.813-6.69-7.953-10.786-8.67-11.162-19.422-25.088-24.371-39.561-7.066-21.094-8.602-65.468-8.602-75.298 0-7.851 1.638-15.053 3.55-20.753-7.031-10.513-17.613-29.935-14.541-48.879l8.977-56.525c2.116-13.175 7.475-24.132 15.087-31.403 9.387-45.978 23.893-102.093 41.609-123.392 3.686-4.437 8.294-9.25 13.585-14.097v-76.254c0-23.347-11.025-39.799-35.772-53.35-12.663-6.963-38.81-15.428-69.018-25.259-28.535-9.25-60.484-20.821-94.686-32.87-84.412-29.491-105.643-162.509-105.643-162.509h653.551c-17.92 23.279-29.15 52.053-29.15 83.729 0 44.237 21.231 83.217 53.76 108.442z" />
<glyph unicode="&#xe912;" glyph-name="tools" d="M748.544 385.161v341.163l34.202 27.511-46.114 172.032h-45.397l-46.66-172.032 34.679-27.511v-341.163zM425.438 850.33v-102.639l-79.531-60.655-79.804 60.655v102.639c-50.244-28.16-84.617-81.271-84.617-142.985 0-90.692 73.557-164.42 164.386-164.42 90.726 0 164.284 73.728 164.284 164.42 0 61.713-34.338 114.825-84.719 142.985zM395.025 546.611c-0.717 9.353-9.011 17.033-18.398 17.033h-61.338c-9.387 0-17.681-7.646-18.398-17.033l-43.725-553.882c-0.717-9.318 6.349-16.998 15.735-16.998h153.941c9.387 0 16.452 7.68 15.735 16.998l-43.554 553.882zM345.907 39.697c-19.081 0-34.406 15.292-34.406 34.406 0 18.705 15.326 34.372 34.406 34.372 18.671 0 34.372-15.667 34.372-34.372 0-19.115-15.701-34.406-34.372-34.406zM789.299-24.269c9.353 0 17.067 7.68 17.067 17.067v282.522c0 9.353-6.315 17.067-14.029 17.067s-14.029 7.68-14.029 17.067v38.878c0 9.387 6.315 17.067 14.029 17.067s14.029 7.68 14.029 17.067v22.016c0 9.353-7.714 17.067-17.067 17.067h-44.407c-9.387 0-24.781 0-34.133 0h-72.26c-9.353 0-17.067-7.714-17.067-17.067v-22.016c0-9.387 7.714-17.067 17.067-17.101h0.717c9.387-0.034 17.067-7.714 17.067-17.101v-38.81c0-9.387-7.68-17.067-17.067-17.067h-0.717c-9.353 0-17.067-7.714-17.067-17.067v-282.522c0-9.387 7.714-17.067 17.067-17.067h150.801z" />
<glyph unicode="&#xe913;" glyph-name="ic-today" horiz-adv-x="896" d="M696.896 396.8h-248.896v-256h248.896v256zM646.976 960v-102.4h-398.016v102.4h-99.648v-102.4h-49.728c-54.784 0-99.584-46.080-99.584-102.4v-716.8c0-56.32 44.8-102.4 99.584-102.4h696.768c54.848 0 99.648 46.080 99.648 102.4v716.8c0 56.32-44.8 102.4-99.648 102.4h-49.664v102.4h-99.712zM796.352 38.4h-696.768v563.2h696.768v-563.2z" />
<glyph unicode="&#xe914;" glyph-name="ic_creditcard" horiz-adv-x="1472" d="M1280 960h-1088c-118.4 0-192-112-192-192v-652.8c0-99.2 80-179.2 179.2-179.2h1113.6c99.2 0 179.2 80 179.2 179.2v659.2c0 96-92.8 185.6-192 185.6zM192 896h1088c64 0 128-60.8 128-121.6v-38.4h-1344v32c0 44.8 44.8 128 128 128zM1292.8 0h-1113.6c-64 0-115.2 51.2-115.2 115.2v460.8h1344v-460.8c0-64-51.2-115.2-115.2-115.2z" />
<glyph unicode="&#xe915;" glyph-name="ic-exprot" horiz-adv-x="1138" d="M758.5 719.189c0 12.516-4.949 24.519-13.824 33.394l-193.365 193.593c-8.932 8.875-20.992 13.824-33.564 13.824h-12.060v-252.814h252.814v12.004zM379.278 296.277v63.147c0 17.522 14.108 31.687 31.573 31.687h347.648v252.814h-268.629c-26.169 0.114-47.332 21.276-47.388 47.445v268.629h-395.093c-26.112 0.057-47.332-21.049-47.388-47.161 0-0.057 0-0.171 0-0.228v-916.48c0-26.34 21.163-47.445 47.388-47.445h663.723c26.112-0.114 47.332 20.992 47.388 47.104 0 0.114 0 0.228 0 0.341v268.572h-347.591c-17.408-0.057-31.63 14.052-31.63 31.573 0-0.057 0-0.057 0 0zM1127.993 351.687l-189.042 190.521c-12.288 12.345-32.313 12.402-44.715 0.057-5.973-5.916-9.33-13.995-9.33-22.414v-128.74h-126.407v-126.464h126.407v-128.683c0-28.217 34.133-42.325 54.044-22.357l189.042 190.464c13.028 13.198 13.028 34.361 0 47.616v0z" />
<glyph unicode="&#xe916;" glyph-name="ic_email" horiz-adv-x="1365" d="M912.213 505.173l453.12 403.627v-971.947zM5.12 960h1356.8l-678.4-599.893zM683.52 301.227l198.827 176.64 431.787-541.867h-1261.227l431.787 536.747zM453.12 505.173l-453.12 403.627v-971.947z" />
<glyph unicode="&#xe917;" glyph-name="shape" d="M1024 215.265v651.653c0 51.2-41.882 93.082-93.082 93.082h-651.653c-51.343-0.164-92.938-41.738-93.082-93.082v-651.653c0-51.2 41.882-93.082 93.082-93.082h651.653c51.2 0 93.082 41.882 93.082 93.082zM442.163 471.265l116.408-139.612 162.877 209.449 209.469-279.265h-651.653l162.898 209.428zM0 773.837v-744.735c0-51.22 41.882-93.102 93.082-93.102h744.755v93.082h-744.755v744.755h-93.082z" />
<glyph unicode="&#xe918;" glyph-name="diamond" horiz-adv-x="1195" d="M43.605 598.059h1105.237v-85.333h-1105.237v85.333zM557.099-12.885l-220.331 562.517 108.203 357.589 81.664-24.704-99.627-329.301 209.536-534.997zM639.659-9.728l-79.488 31.019 207.573 531.883-99.755 329.301 81.664 24.747 108.331-357.547zM597.333-24.917c-22.784 0-44.203 8.832-60.288 24.875l-494.421 494.976c-32.128 32.171-34.816 85.035-6.144 120.32l223.531 274.645c22.997 28.245 66.176 48.768 102.656 48.768h469.376c36.48 0 79.701-20.565 102.699-48.896l223.403-274.517c28.757-35.328 25.984-88.192-6.187-120.363l-494.293-494.891c-16.085-16.085-37.504-24.917-60.331-24.917zM362.667 853.333c-10.667 0-29.781-9.045-36.48-17.323l-223.531-274.603c-0.981-1.237-0.768-5.077 0.341-6.187l494.336-494.805c0.043 0 0.085 0 0.085 0l494.251 494.805c1.067 1.109 1.28 4.992 0.341 6.229l-223.445 274.56c-6.784 8.235-25.856 17.323-36.523 17.323h-469.376z" />
<glyph unicode="&#xe919;" glyph-name="arrow_s_r" horiz-adv-x="581" d="M67.308-64.034c-17.361 0-34.688 6.612-47.946 19.87-26.482 26.482-26.482 69.411 0 95.893l397.847 395.135-397.339 397.373c-26.482 26.482-26.482 69.411 0 95.893 26.449 26.482 69.411 26.482 95.893 0l445.285-445.285c26.482-26.482 26.482-69.411 0-95.927l-445.794-443.081c-13.224-13.224-30.585-19.87-47.946-19.87z" />
<glyph unicode="&#xe91a;" glyph-name="ic-mouse-scrolling" horiz-adv-x="1602" d="M1358.29 506.694h-358.912c-12.102 0-21.83-9.728-21.876-21.783v-101.841c0-12.102 9.775-21.876 21.876-21.876h359.005v-83.735c0-38.865 47.011-58.321 74.473-30.86l156.532 156.486c16.989 17.036 17.036 44.637 0 61.673v0l-156.486 156.486c-27.508 27.462-74.519 8.006-74.519-30.86v-83.782h-0.093zM279.273 866.909c-102.819 0-186.182-83.363-186.182-186.182v-465.455c0-102.819 83.363-186.182 186.182-186.182h186.182c102.819 0 186.182 83.363 186.182 186.182v465.455c0 102.819-83.363 186.182-186.182 186.182h-186.182zM279.273 960h186.182c154.205 0 279.273-125.068 279.273-279.273v-465.455c0-154.205-125.068-279.273-279.273-279.273h-186.182c-154.205 0-279.273 125.068-279.273 279.273v465.455c0 154.205 125.068 279.273 279.273 279.273zM372.364 727.273v0c25.693 0 46.545-20.852 46.545-46.545v-93.091c0-25.693-20.852-46.545-46.545-46.545v0c-25.693 0-46.545 20.852-46.545 46.545v93.091c0 25.693 20.852 46.545 46.545 46.545z" />
<glyph unicode="&#xe91b;" glyph-name="arrow_s_b" d="M508.715 126.379v0c-11.307 0-22.229 4.48-30.165 12.501l-466.048 466.219c-16.683 16.683-16.683 43.648 0 60.331s43.648 16.683 60.331 0l435.883-436.053 442.453 442.453c16.683 16.683 43.648 16.683 60.331 0s16.683-43.605 0-60.331l-472.619-472.619c-8.064-7.979-18.859-12.501-30.165-12.501z" />
<glyph unicode="&#xe91c;" glyph-name="timing" horiz-adv-x="910" d="M455.111-29.241c-235.292 0-426.667 191.374-426.667 426.667 0 235.236 191.374 426.667 426.667 426.667s426.667-191.374 426.667-426.667c0-235.236-191.374-426.667-426.667-426.667zM455.111 767.204c-203.89 0-369.778-165.888-369.778-369.778s165.888-369.778 369.778-369.778 369.778 165.888 369.778 369.778-165.888 369.778-369.778 369.778zM524.686 868.352h-139.093c-15.701 0-28.444 12.743-28.444 28.444s12.743 28.444 28.444 28.444h139.093c15.701 0 28.444-12.743 28.444-28.444s-12.743-28.444-28.444-28.444zM455.111 767.204c-15.701 0-28.444 12.743-28.444 28.444v101.148c0 15.701 12.743 28.444 28.444 28.444s28.444-12.743 28.444-28.444v-101.148c0-15.758-12.743-28.444-28.444-28.444zM744.448 763.904c-4.836 0-9.728 1.195-14.222 3.812l-88.462 50.972c-13.596 7.851-18.261 25.259-10.468 38.855 7.908 13.596 25.202 18.318 38.912 10.411l88.462-50.972c13.596-7.851 18.261-25.259 10.468-38.855-5.291-9.102-14.848-14.222-24.69-14.222zM657.692 715.833c-4.836 0-9.785 1.195-14.222 3.812-13.596 7.851-18.261 25.259-10.411 38.855l42.553 73.557c7.964 13.596 25.486 18.204 38.855 10.354 13.596-7.851 18.261-25.259 10.411-38.855l-42.553-73.557c-5.348-9.102-14.905-14.165-24.633-14.165zM455.111 279.381c-15.701 0-28.444 12.743-28.444 28.444v328.704c0 15.701 12.743 28.444 28.444 28.444s28.444-12.743 28.444-28.444v-328.704c0-15.701-12.743-28.444-28.444-28.444zM510.35 390.656c0-29.314-23.764-53.077-53.077-53.077s-53.077 23.764-53.077 53.077c0 29.314 23.764 53.077 53.077 53.077s53.077-23.764 53.077-53.077z" />
<glyph unicode="&#xe91d;" glyph-name="info" d="M512-28.444c-262.713 0-476.444 213.732-476.444 476.444s213.732 476.444 476.444 476.444 476.444-213.732 476.444-476.444-213.732-476.444-476.444-476.444zM512 881.778c-239.218 0-433.778-194.56-433.778-433.778 0-239.161 194.56-433.778 433.778-433.778 239.161 0 433.778 194.617 433.778 433.778 0 239.218-194.617 433.778-433.778 433.778zM611.783 259.356l-6.428-27.364c-20.309-7.851-36.409-13.881-48.412-17.806-12.004-4.437-26.055-6.315-41.87-6.315-24.348 0-43.292 5.916-56.889 17.806-13.426 11.776-20.252 27.022-20.252 45.454 0 7.111 0.512 14.222 1.536 21.788 0.967 7.452 2.674 15.644 4.779 25.202l25.259 88.917c2.276 8.761 4.039 16.953 5.689 24.405 1.479 7.68 2.332 14.791 2.332 20.878 0 11.492-2.332 19.456-6.94 23.893-4.892 4.153-13.938 6.315-27.136 6.315-6.428 0-13.084-0.967-20.025-3.072-6.77-1.991-12.686-3.982-17.636-5.86l6.827 27.534c16.498 6.713 32.142 12.459 47.275 17.294s29.355 7.282 42.837 7.282c24.348 0 43.008-5.916 56.092-17.692 13.028-11.662 19.797-26.795 19.797-45.568 0-3.925-0.683-10.695-1.479-20.48-1.081-9.785-2.674-18.773-5.006-27.022l-25.202-88.747c-1.877-6.997-3.641-15.36-5.461-24.462-1.707-8.988-2.389-15.986-2.389-20.764 0-11.776 2.617-19.911 7.851-24.007 5.348-4.21 14.564-6.542 27.42-6.542 6.144 0 13.141 1.195 20.708 3.413 7.737 2.048 13.255 4.039 16.725 5.518v0zM618.155 632.149c0-15.417-5.746-28.729-17.408-39.538-11.662-10.923-25.771-16.327-42.439-16.327-16.327 0-30.436 5.404-42.325 16.327-11.947 10.809-17.692 24.064-17.692 39.538 0 15.36 5.803 28.672 17.806 39.708 11.833 10.866 25.941 16.498 42.382 16.498 16.668 0 30.663-5.632 42.325-16.498 11.776-11.036 17.351-24.348 17.351-39.708v0z" />
<glyph unicode="&#xe91e;" glyph-name="ic-double-chose-off" d="M512-64c282.77 0 512 229.23 512 512s-229.23 512-512 512v0c-282.77 0-512-229.23-512-512s229.23-512 512-512v0zM512 21.312c-235.653 0-426.688 191.035-426.688 426.688s191.035 426.688 426.688 426.688v0c235.653 0 426.688-191.035 426.688-426.688s-191.035-426.688-426.688-426.688v0zM801.92 546.048l-42.24 42.496c-5.393 5.431-12.864 8.793-21.12 8.793s-15.727-3.362-21.118-8.792l-0.002-0.002-280.128-281.728-130.752 131.52c-5.393 5.431-12.864 8.793-21.12 8.793s-15.727-3.362-21.118-8.792l-0.002-0.002-42.24-42.496c-5.396-5.445-8.73-12.941-8.73-21.216s3.334-15.771 8.733-21.218l-0.002 0.002 194.112-195.264c5.393-5.431 12.864-8.793 21.12-8.793s15.727 3.362 21.118 8.792l0.002 0.002 343.488 345.408c5.415 5.448 8.762 12.957 8.762 21.248s-3.347 15.8-8.764 21.25l0.001-0.002zM407.68 416.832c3.782-3.814 9.023-6.175 14.816-6.175 5.697 0 10.861 2.284 14.626 5.985l-0.003-0.003 247.36 245.312c3.814 3.782 6.175 9.023 6.175 14.816 0 5.697-2.284 10.861-5.985 14.626l0.003-0.003-48.896 49.088c-3.785 3.833-9.039 6.207-14.849 6.207-5.681 0-10.833-2.271-14.595-5.955l0.004 0.004-183.296-182.144-79.616 80.256c-3.782 3.814-9.023 6.175-14.816 6.175-5.697 0-10.861-2.284-14.626-5.985l0.003 0.003-49.152-48.704c-3.814-3.782-6.175-9.023-6.175-14.816 0-5.697 2.284-10.861 5.985-14.626l-0.003 0.003 143.040-144z" />
<glyph unicode="&#xe91f;" glyph-name="ic_helpcenter" d="M512 916.884c258.695 0 474.274-210.189 474.274-474.274s-210.189-474.274-474.274-474.274-474.274 210.189-474.274 474.274 215.579 474.274 474.274 474.274zM512 960c-280.253 0-512-231.747-512-512s231.747-512 512-512 512 231.747 512 512-231.747 512-512 512v0zM393.432 679.747c32.337 32.337 75.453 53.895 134.737 53.895 53.895 0 97.011-16.168 123.958-43.116 37.726-32.337 48.505-70.063 48.505-118.568 0-26.947-5.389-48.505-16.168-70.063-10.779-16.168-32.337-43.116-70.063-75.453-26.947-26.947-43.116-43.116-48.505-64.674-5.389-16.168-10.779-43.116-10.779-75.453h-70.063c0 37.726 5.389 70.063 10.779 91.621 10.779 21.558 26.947 48.505 59.284 80.842l32.337 32.337c10.779 10.779 16.168 16.168 21.558 26.947 10.779 16.168 16.168 32.337 16.168 53.895 0 26.947-5.389 48.505-21.558 64.674-16.168 21.558-43.116 26.947-75.453 26.947-43.116 0-75.453-16.168-91.621-48.505-10.779-10.779-16.168-37.726-21.558-70.063h-70.063c0 53.895 16.168 102.4 48.505 134.737zM479.663 227.032h80.842v-80.842h-80.842v80.842z" />
<glyph unicode="&#xe921;" glyph-name="ic_member" horiz-adv-x="909" d="M808.306-64h-708.085c-54.468 0-100.221 45.753-100.221 100.221 0 198.264 128.545 372.562 313.736 431.387-76.255 47.932-124.187 132.902-124.187 224.409 0 148.153 117.651 267.983 265.804 267.983 145.974 0 265.804-119.83 265.804-265.804 0-93.685-47.932-176.477-124.187-224.409 185.191-61.004 313.736-233.123 313.736-431.387-2.179-56.647-45.753-102.4-102.4-102.4zM455.353 916.426c-122.009 0-222.23-100.221-222.23-222.23 0-95.864 61.004-180.834 152.511-211.336 8.715-2.179 15.251-13.072 15.251-21.787 0-10.894-8.715-17.43-17.43-19.609-198.264-34.86-339.881-206.979-339.881-405.243 0-30.502 26.145-56.647 56.647-56.647h708.085c30.502 0 56.647 26.145 56.647 56.647 0 198.264-141.617 368.204-337.702 405.243-8.715 2.179-17.43 10.894-17.43 19.609 0 10.894 4.357 19.609 15.251 21.787 91.506 30.502 152.511 115.472 152.511 211.336 0 122.009-100.221 222.23-222.23 222.23z" />
<glyph unicode="&#xe922;" glyph-name="ic_multimedia" horiz-adv-x="1098" d="M1042.618 960h-986.764c-31.651 0-55.855-24.204-55.855-55.855v-590.196c0-31.651 24.204-55.855 55.855-55.855h5.585l-26.065-130.327h72.611l18.618 31.651h327.68l13.033-31.651h599.505l-26.065 130.327h1.862c31.651 0 55.855 24.204 55.855 55.855v590.196c0 31.651-24.204 55.855-55.855 55.855zM83.782 859.462c0 20.48 16.756 37.236 37.236 37.236h664.669l-180.596-290.444h37.236l180.596 290.444h37.236l-124.742-197.353h37.236l124.742 197.353h80.058c20.48 0 37.236-16.756 37.236-37.236v-498.967c0-20.48-16.756-37.236-37.236-37.236h-856.436c-20.48 0-37.236 16.756-37.236 37.236v498.967zM1068.684 109.149h-616.262l-11.171 31.651h-305.338l-18.618-31.651h-87.505l-26.065-122.88c-7.447-16.756 0-37.236 14.895-46.545 7.447-1.862 13.033-3.724 18.618-3.724h1024c5.585 0 13.033 1.862 16.756 3.724 16.756 9.309 22.342 29.789 14.895 46.545l-24.204 122.88z" />
<glyph unicode="&#xe92a;" glyph-name="ic_phone" horiz-adv-x="1022" d="M606.569 206.456c-10.303 11.792-25.369 19.2-42.165 19.2s-31.862-7.408-42.109-19.135l-0.056-0.066c-19.878-19.878-39.755-39.153-59.633-59.633-2.217-3.009-5.746-4.939-9.727-4.939-2.429 0-4.691 0.719-6.583 1.956l0.046-0.028c-12.649 7.228-25.901 12.649-38.551 20.48-57.25 37.597-106.141 82.082-147.233 133.111l-0.945 1.214c-20.578 24.701-38.318 52.862-52.067 83.216l-0.94 2.318c-0.906 1.651-1.439 3.618-1.439 5.709 0 3.763 1.726 7.124 4.429 9.333l0.022 0.017c19.878 19.275 39.153 39.153 58.428 58.428 12.456 10.425 20.321 25.979 20.321 43.369s-7.865 32.944-20.232 43.297l-0.088 0.072c-15.059 15.661-30.72 30.72-46.381 46.381s-31.925 31.925-48.188 47.586c-10.236 11.92-25.324 19.424-42.165 19.424s-31.929-7.504-42.103-19.35l-0.062-0.074c-19.878-19.275-39.153-39.755-59.633-58.428-17.406-16.508-28.673-39.34-30.106-64.8l-0.011-0.254c-0.13-3.209-0.204-6.976-0.204-10.761 0-38.915 7.823-76.002 21.983-109.776l-0.697 1.873c32.124-81.74 75.237-152.141 128.466-213.535l-0.767 0.905c71.312-84.82 158.528-153.743 257.382-202.72l4.642-2.080c42.063-22.681 91.357-37.95 143.694-42.66l1.473-0.107c3.389-0.376 7.318-0.59 11.297-0.59 31.772 0 60.352 13.666 80.182 35.44l0.078 0.087c16.866 19.275 35.539 36.141 53.609 54.814 12.499 10.263 20.41 25.716 20.41 43.017 0 17.026-7.661 32.262-19.725 42.45l-0.083 0.068c-31.322 31.925-62.645 63.247-94.569 95.172zM928.828 865.431c-58.421 58.725-139.291 95.067-228.649 95.067-178.112 0-322.5-144.388-322.5-322.5 0-82.316 30.84-157.429 81.596-214.415l-0.282 0.322 3.614-3.012c-13.791-31.971-36.999-57.704-66.098-74.291l-0.764-0.401c-4.141-2.085-6.932-6.303-6.932-11.172 0-6.208 4.536-11.356 10.475-12.31l0.071-0.009c7.696-1.17 16.575-1.838 25.611-1.838 42.138 0 80.882 14.535 111.491 38.864l-0.368-0.282h1.205c46.757-27.924 103.129-44.433 163.356-44.433 178.112 0 322.5 144.388 322.5 322.5 0 88.991-36.044 169.563-94.33 227.913l0.003-0.003zM714.391 836.518c0.055 0 0.121 0 0.187 0 28.843 0 52.224-23.381 52.224-52.224 0-0.275-0.002-0.55-0.006-0.825l0.001 0.041c-0.171-28.813-23.568-52.104-52.405-52.104-28.943 0-52.406 23.463-52.406 52.406 0 0.106 0 0.212 0.001 0.317v-0.016c-0.003 0.216-0.005 0.472-0.005 0.728 0 28.543 23.139 51.682 51.682 51.682 0.256 0 0.511-0.002 0.766-0.006h-0.039zM789.082 482.334c-1.003-5.072-3.585-9.422-7.205-12.629l-0.024-0.021c-17.371-18.707-41.865-30.592-69.14-31.32l-0.13-0.003c-1.909-0.048-4.157-0.075-6.412-0.075-11.326 0-22.492 0.684-33.459 2.012l1.32-0.13c-25.388 5.925-44.010 28.363-44.010 55.151 0 0.729 0.014 1.455 0.041 2.177l-0.003-0.104c3.012 18.673 5.421 37.948 9.035 56.621 5.421 32.527 11.445 65.656 16.866 98.184 0.398 1.661 0.627 3.568 0.627 5.528 0 0.386-0.009 0.77-0.026 1.152l0.002-0.054c0.239 1.069 0.377 2.297 0.377 3.557 0 9.381-7.605 16.986-16.986 16.986-0.514 0-1.023-0.023-1.526-0.068l0.065 0.005c-6.197 0.463-11.944 1.533-17.451 3.16l0.585-0.148c-5.608 1.578-9.651 6.648-9.651 12.662 0 0.208 0.005 0.414 0.014 0.619l-0.001-0.029c0.909 5.831 5.895 10.241 11.911 10.241 0.048 0 0.096 0 0.143-0.001h-0.007c3.018 0.796 6.483 1.253 10.054 1.253 0.701 0 1.398-0.018 2.090-0.052l-0.097 0.004h99.388c0.724 0.103 1.56 0.161 2.41 0.161 9.98 0 18.071-8.090 18.071-18.071 0-0.057 0-0.113-0.001-0.17v0.009c-0.343-11.081-1.642-21.646-3.822-31.886l0.208 1.166c-6.626-37.346-13.854-74.692-20.48-112.64-2.409-12.047-4.819-24.696-6.626-37.346-0.046-0.891-0.072-1.934-0.072-2.983 0-5.359 0.686-10.559 1.974-15.515l-0.094 0.427c1.382-6.624 7.172-11.529 14.108-11.529 0.547 0 1.087 0.031 1.619 0.090l-0.065-0.006c6.626 1.205 13.252 3.614 19.878 5.421 4.819 2.409 9.638 6.024 14.456 7.831 1.271 0.875 2.844 1.397 4.539 1.397 4.458 0 8.072-3.614 8.072-8.072 0-1.067-0.207-2.085-0.583-3.018l0.019 0.054z" />
<glyph unicode="&#xe92c;" glyph-name="ic_qrcode" d="M0-64h465.455v465.455h-465.455v-465.455zM93.091 308.364h279.273v-279.273h-279.273v279.273zM186.182 215.273h93.091v-93.091h-93.091v93.091zM744.727 29.091h93.091v-93.091h-93.091v93.091zM930.909 29.091h93.091v-93.091h-93.091v93.091zM930.909 308.364h-93.091v93.091h-279.273v-465.455h93.091v279.273h93.091v-93.091h279.273v279.273h-93.091v-93.091zM0 494.545h465.455v465.455h-465.455v-465.455zM93.091 866.909h279.273v-279.273h-279.273v279.273zM186.182 773.818h93.091v-93.091h-93.091v93.091zM558.545 960v-465.455h465.455v465.455h-465.455zM930.909 587.636h-279.273v279.273h279.273v-279.273zM744.727 773.818h93.091v-93.091h-93.091v93.091z" />
<glyph unicode="&#xe92d;" glyph-name="cp-filter" horiz-adv-x="1057" d="M1057.161 960c-1.8-3.020-3.368-6.214-5.517-8.944-145.655-183.114-291.368-366.229-437.314-549.227-7.027-8.828-10.338-18.062-10.338-29.445 0.232-103.55-0.116-207.042 0.348-310.65 0.116-15.681-4.878-26.076-18.004-35.020-41.060-27.76-81.423-56.16-122.134-84.269-2.613-1.742-5.401-3.601-10.163-6.505 0 5.227 0 8.77 0 12.486 0 139.151-0.116 278.127 0.232 417.103 0.058 15.681-3.601 27.819-13.996 40.479-71.085 87.405-140.951 175.739-211.107 263.84-74.57 93.677-149.14 187.47-223.593 281.205-2.207 2.73-3.717 5.982-5.575 8.944 352.407 0 704.813 0 1057.161 0z" />
<glyph unicode="&#xe92e;" glyph-name="cp-option" horiz-adv-x="1061" d="M0 573.827c8.956 0 13.847 0 18.678 0 123.853 0 247.707 0.118 371.56-0.295 11.431-0.059 15.85 3.476 19.267 14.2 37.71 117.726 76.068 235.274 114.308 352.823 1.827 5.715 4.007 11.313 6.953 19.444 14.907-45.841 29.107-89.207 43.19-132.633 25.808-79.839 52.087-159.619 77.541-239.635 3.359-10.665 7.719-14.318 19.091-14.259 123.971 0.471 247.766 0.354 371.737 0.354 4.949 0 9.781 0 18.56 0-6.835-5.656-10.37-8.603-13.847-11.313-100.579-75.361-201.041-150.84-301.856-225.847-9.31-6.776-10.547-12.315-7.012-22.803 38.888-119.258 77.187-238.927 115.545-358.362 1.296-4.242 2.534-8.72 4.714-16.911-6.599 4.596-10.606 7.365-14.318 10.135-100.874 72.592-201.689 145.301-302.15 218.305-8.661 6.187-14.082 6.128-22.744-0.118-100.108-73.534-200.569-146.715-300.913-219.896-4.125-3.005-8.367-5.892-15.732-11.077 2.298 8.308 3.594 13.375 5.185 18.325 38.24 119.965 76.304 239.929 115.074 359.835 3.712 11.49 1.061 16.911-8.013 23.569-100.52 74.831-200.687 149.779-300.972 224.786-3.594 2.769-6.953 5.715-13.847 11.372z" />
<glyph unicode="&#xe930;" glyph-name="cp-type" horiz-adv-x="1201" d="M199.231 860.803l-145.604 90.882c-29.649 18.499-53.627 5.156-53.627-29.585v-189.627c0-34.87 24.042-48.212 53.627-29.714l145.604 91.011c29.585 18.434 29.585 48.47 0 67.033zM1137.635 922.1h-758.444c-34.935 0-63.231-28.36-63.231-63.231v-63.231c0-34.935 28.296-63.166 63.231-63.166h758.444c34.87 0 63.102 28.231 63.102 63.166v63.166c0.064 34.87-28.231 63.295-63.102 63.295zM53.627 323.44l145.604 91.075c29.585 18.37 28.231 46.085-2.965 61.684l-139.739 69.934c-31.261 15.534-56.527 0-56.527-34.87v-158.109c0-34.87 23.977-48.341 53.627-29.714zM1137.635 542.846h-758.444c-34.935 0-63.231-28.296-63.231-63.231v-63.166c0-34.87 28.296-63.102 63.231-63.102h758.444c34.87 0 63.102 28.231 63.102 63.102v63.166c0.064 34.935-28.231 63.231-63.102 63.231zM199.231 102.23l-145.604 91.14c-29.585 18.37-53.627 5.221-53.627-29.843v-189.563c0-34.741 24.042-48.019 53.627-29.456l145.604 90.882c29.585 18.499 29.585 48.341 0 66.84zM1137.635 163.527h-758.444c-34.935 0-63.231-28.167-63.231-63.102v-63.102c0-34.87 28.296-63.231 63.231-63.231h758.444c34.87 0 63.102 28.36 63.102 63.231v63.102c0.064 34.935-28.231 63.102-63.102 63.102z" />
<glyph unicode="&#xe931;" glyph-name="cp-area" horiz-adv-x="725" d="M339.457 960c16.12 0 32.35 0 48.525 0 22.131-3.989 44.536-6.721 66.449-12.186 185.303-46.94 301.588-232.134 263.883-418.912-9.782-48.47-31.203-92.296-52.733-136.067-65.957-134.701-148.854-258.691-239.456-377.818-20.219-26.612-41.476-52.514-62.624-79.017-2.514 2.678-3.989 3.989-5.246 5.628-110.876 134.701-210.002 277.38-289.566 433.010-24.317 47.541-49.29 95.411-60.165 148.635-3.443 16.94-5.738 34.099-8.525 51.203 0 16.995 0 33.989 0 50.93 0.71 2.678 1.803 5.301 2.077 8.033 14.536 148.198 118.089 272.298 261.642 312.080 24.7 6.885 50.438 9.782 75.739 14.481zM207.707 604.095c-0.273-85.465 68.908-155.302 154.155-155.685 85.957-0.383 156.286 69.29 156.614 154.81 0.219 85.192-69.4 155.248-154.537 155.575-86.394 0.328-156.067-68.635-156.231-154.701z" />
<glyph unicode="&#xe936;" glyph-name="common_connection" d="M584.55 283.699c-60.621 0-121.242 23.040-167.475 69.222-20.019 19.968-20.070 52.326-0.102 72.397 20.019 20.019 52.378 20.122 72.397 0.102 52.582-52.378 137.83-52.326 190.106-0.051l202.906 202.957c25.344 25.19 39.219 58.931 39.219 94.976 0 36.096-13.875 69.837-39.219 95.13-52.531 52.275-137.83 52.224-190.106 0l-154.88-155.136c-19.968-20.019-52.378-20.070-72.397-0.051-20.019 19.968-20.070 52.378-0.051 72.397l154.829 155.187c92.365 92.211 242.381 92.16 334.899 0.102 44.749-44.698 69.325-104.192 69.325-167.629s-24.576-122.931-69.222-167.475l-202.906-202.906c-46.080-46.131-106.65-69.222-167.322-69.222zM236.749-64c-60.621 0-121.293 23.040-167.475 69.12-44.698 44.698-69.274 104.141-69.274 167.578 0 63.386 24.576 122.88 69.222 167.475l190.874 190.822c92.467 92.365 242.79 92.314 335.258 0 20.070-19.968 20.070-52.378 0-72.397-20.070-20.070-52.429-20.019-72.397-0.051-52.531 52.429-137.933 52.429-190.515 0l-190.874-190.771c-25.293-25.293-39.219-59.034-39.219-95.078 0-36.096 13.926-69.837 39.219-95.078 52.48-52.275 137.779-52.275 190.106 0l131.533 131.226c20.019 19.968 52.429 19.968 72.448-0.102 19.968-20.070 19.968-52.326-0.051-72.397l-131.584-131.226c-46.080-46.080-106.65-69.12-167.27-69.12z" />
<glyph unicode="&#xe937;" glyph-name="ic_search" d="M1024 20.578l-262.796 262.796c54.372 72.496 84.578 160.094 84.578 253.735 0 232.59-190.301 422.891-422.891 422.891s-422.891-190.301-422.891-422.891 190.301-422.891 422.891-422.891c93.64 0 181.239 30.206 253.735 84.578l262.796-262.796 84.578 84.578zM120.826 537.109c0 166.136 135.929 302.065 302.065 302.065s302.065-135.929 302.065-302.065-135.929-302.065-302.065-302.065-302.065 135.929-302.065 302.065z" />
<glyph unicode="&#xe93d;" glyph-name="cart" d="M384 32c0-53.019-42.981-96-96-96s-96 42.981-96 96c0 53.019 42.981 96 96 96s96-42.981 96-96zM1024 32c0-53.019-42.981-96-96-96s-96 42.981-96 96c0 53.019 42.981 96 96 96s96-42.981 96-96zM1024 448v384h-768c0 35.346-28.654 64-64 64h-192v-64h128l48.074-412.054c-29.294-23.458-48.074-59.5-48.074-99.946 0-70.696 57.308-128 128-128h768v64h-768c-35.346 0-64 28.654-64 64 0 0.218 0.014 0.436 0.016 0.656l831.984 127.344z" />
<glyph unicode="&#xe93e;" glyph-name="coin-dollar" d="M480 896c-265.096 0-480-214.904-480-480 0-265.098 214.904-480 480-480 265.098 0 480 214.902 480 480 0 265.096-214.902 480-480 480zM480 32c-212.078 0-384 171.922-384 384s171.922 384 384 384c212.078 0 384-171.922 384-384s-171.922-384-384-384zM512 448v128h128v64h-128v64h-64v-64h-128v-256h128v-128h-128v-64h128v-64h64v64h128.002l-0.002 256h-128zM448 448h-64v128h64v-128zM576.002 256h-64.002v128h64.002v-128z" />
<glyph unicode="&#xe93f;" glyph-name="ic_phone_download" horiz-adv-x="605" d="M488.727 960h-372.364c-65.164 0-116.364-51.2-116.364-116.364v-791.273c0-65.164 51.2-116.364 116.364-116.364h372.364c65.164 0 116.364 51.2 116.364 116.364v791.273c0 65.164-51.2 116.364-116.364 116.364zM302.545-17.455c-39.564 0-69.818 30.255-69.818 69.818s30.255 69.818 69.818 69.818 69.818-30.255 69.818-69.818-30.255-69.818-69.818-69.818zM512 168.727h-418.909v651.636h418.909v-651.636zM449.164 454.982c-13.964 13.964-34.909 13.964-48.873 0l-62.836-60.509v232.727c0 18.618-16.291 34.909-34.909 34.909s-34.909-16.291-34.909-34.909v-230.4l-60.509 60.509c-13.964 13.964-34.909 13.964-48.873 0s-13.964-34.909 0-48.873l114.036-111.709c6.982-11.636 16.291-18.618 30.255-18.618s23.273 6.982 30.255 18.618l114.036 109.382c13.964 13.964 16.291 34.909 2.327 48.873z" />
<glyph unicode="&#xe940;" glyph-name="ic_scanner" d="M910.222 960h-227.556v-113.778h227.556v-227.556h113.778v227.556c0 62.578-51.2 113.778-113.778 113.778zM910.222 49.778h-227.556v-113.778h227.556c62.578 0 113.778 51.2 113.778 113.778v227.556h-113.778v-227.556zM113.778 277.333h-113.778v-227.556c0-62.578 51.2-113.778 113.778-113.778h227.556v113.778h-227.556v227.556zM0 846.222v-227.556h113.778v227.556h227.556v113.778h-227.556c-62.578 0-113.778-51.2-113.778-113.778zM981.333 405.333h-938.667c-22.756 0-42.667 19.911-42.667 42.667v0c0 22.756 19.911 42.667 42.667 42.667h938.667c22.756 0 42.667-19.911 42.667-42.667v0c0-22.756-19.911-42.667-42.667-42.667z" />
<glyph unicode="&#xe941;" glyph-name="ic_keyboard" horiz-adv-x="1463" d="M1097.143 740.571h146.286v-146.286h-146.286v146.286zM1097.143 521.143h146.286v-146.286h-146.286v146.286zM877.714 740.571h146.286v-146.286h-146.286v146.286zM877.714 521.143h146.286v-146.286h-146.286v146.286zM438.857 228.571h585.143v-146.286h-585.143v146.286zM219.429 740.571h146.286v-146.286h-146.286v146.286zM219.429 521.143h146.286v-146.286h-146.286v146.286zM438.857 521.143h146.286v-146.286h-146.286v146.286zM438.857 740.571h146.286v-146.286h-146.286v146.286zM658.286 521.143h146.286v-146.286h-146.286v146.286zM658.286 740.571h146.286v-146.286h-146.286v146.286zM1316.571 960h-1170.286c-80.457 0-146.286-65.829-146.286-146.286v-731.429c0-80.457 65.829-146.286 146.286-146.286h1170.286c80.457 0 146.286 65.829 146.286 146.286v731.429c0 80.457-65.829 146.286-146.286 146.286z" />
<glyph unicode="&#xe942;" glyph-name="credit-card" d="M928 832h-832c-52.8 0-96-43.2-96-96v-576c0-52.8 43.2-96 96-96h832c52.8 0 96 43.2 96 96v576c0 52.8-43.2 96-96 96zM96 768h832c17.346 0 32-14.654 32-32v-96h-896v96c0 17.346 14.654 32 32 32zM928 128h-832c-17.346 0-32 14.654-32 32v288h896v-288c0-17.346-14.654-32-32-32zM128 320h64v-128h-64zM256 320h64v-128h-64zM384 320h64v-128h-64z" />
<glyph unicode="&#xe943;" glyph-name="ic_safe" horiz-adv-x="838" d="M321.164 222.255l-183.855 183.855 65.164 65.164 118.691-118.691 302.545 302.545 65.164-65.164-367.709-367.709zM414.255 960l-414.255-183.855v-276.945c0-256 176.873-493.382 414.255-551.564 237.382 58.182 414.255 295.564 414.255 551.564v276.945l-414.255 183.855z" />
<glyph unicode="&#xe944;" glyph-name="ic_pw" horiz-adv-x="870" d="M768 535.040h-512v117.76c0 92.16 61.44 168.96 153.6 179.2 102.4 10.24 189.44-71.68 189.44-168.96 0-25.6 15.36-40.96 40.96-40.96h40.96c25.6 0 40.96 15.36 40.96 40.96 0 163.84-128 291.84-291.84 296.96s-307.2-133.12-307.2-296.96v-128h-35.84c-46.080 0-87.040-40.96-87.040-87.040v-296.96c0-122.88 92.16-215.040 215.040-215.040h424.96c117.76 0 215.040 92.16 215.040 215.040v296.96c0 46.080-40.96 87.040-87.040 87.040zM471.040 202.24v-56.32c0-20.48-20.48-40.96-40.96-40.96s-40.96 20.48-40.96 40.96v56.32c-25.6 10.24-40.96 40.96-40.96 71.68 0 46.080 40.96 87.040 87.040 87.040s87.040-40.96 87.040-87.040c-10.24-25.6-25.6-56.32-51.2-71.68z" />
<glyph unicode="&#xe945;" glyph-name="ic_acc" d="M512 320c389.12 0 512-256 512-256v-128h-1024v128c0 0 122.88 256 512 256zM512 960c143.36 0 256-112.64 256-256s-112.64-256-256-256-256 112.64-256 256 112.64 256 256 256z" />
<glyph unicode="&#xe946;" glyph-name="phone-hang-up" d="M1017.378 384.006c8.004-55.482 13.216-131.392-11.664-160.446-41.142-48.044-301.712-48.044-301.712 48.042 0 48.398 42.856 80.134 1.712 128.178-40.472 47.262-113.026 48.030-193.714 48.042-80.686-0.012-153.242-0.78-193.714-48.042-41.142-48.046 1.714-79.78 1.714-128.178 0-96.086-260.57-96.086-301.714-48.044-24.878 29.054-19.668 104.964-11.662 160.446 6.16 37.038 21.724 76.996 71.548 127.994 0 0.002 0.002 0.002 0.002 0.004 74.738 69.742 187.846 126.738 429.826 127.968v0.030c1.344 0 2.664-0.010 4-0.014 1.338 0.004 2.656 0.014 4 0.014v-0.028c241.98-1.23 355.088-58.226 429.826-127.968 0.002-0.002 0.002-0.004 0.002-0.004 49.824-50.996 65.39-90.954 71.55-127.994z" />
<glyph unicode="&#xe947;" glyph-name="ic_reflash" d="M896 448c-38.4 0-57.6-25.6-64-57.6-25.6-102.4-121.6-262.4-320-262.4-51.2 0-96 12.8-134.4 32l32 32c25.6 19.2 38.4 38.4 38.4 64 0 32-25.6 64-64 64h-192c-38.4 0-64-32-64-64v-192c0-32 25.6-64 64-64 32 0 44.8 19.2 64 38.4l25.6 25.6c70.4-38.4 147.2-64 230.4-64 320 0 448 307.2 448 377.6 0 51.2-32 70.4-64 70.4zM192 505.6c25.6 102.4 121.6 262.4 320 262.4 51.2 0 96-12.8 134.4-32l-32-32c-25.6-19.2-38.4-38.4-38.4-64 0-32 25.6-64 64-64h192c38.4 0 64 32 64 64v192c0 32-25.6 64-64 64-32 0-44.8-19.2-64-38.4l-25.6-25.6c-70.4 38.4-147.2 64-230.4 64-320 0-448-307.2-448-377.6 0-51.2 32-70.4 64-70.4 38.4 0 57.6 25.6 64 57.6z" />
<glyph unicode="&#xe948;" glyph-name="ic_del-news_svg" horiz-adv-x="922" d="M102.963 652.8v-562.432c0-84.838 68.557-153.651 153.344-153.651h410.112c84.736 0 153.344 68.71 153.344 153.651v562.432h-102.4v-562.432c0-28.467-22.733-51.251-50.944-51.251h-410.112c-28.109 0-50.944 22.886-50.944 51.251v562.432h-102.4zM306.637 653.722v-512.922h102.4v512.922zM512 652.8v-512h102.4v512zM0 755.2h921.6v102.4h-921.6zM613.478 857.6v51.2c0 28.262-22.989 51.2-51.251 51.2h-203.776c-28.314 0-51.251-22.733-51.251-51.2v-51.2h306.278z" />
<glyph unicode="&#xe949;" glyph-name="ic_doing_svg" d="M512-64c-281.6 0-512 230.4-512 512s230.4 512 512 512 512-230.4 512-512-230.4-512-512-512zM558.080 642.56c30.72 0 56.32 25.6 56.32 56.32s-25.6 56.32-56.32 56.32-56.32-25.6-56.32-56.32 25.6-56.32 56.32-56.32zM455.68 243.2l30.72 128 61.44-56.32v-174.080h56.32v215.040l-61.44 56.32 15.36 87.040c35.84-40.96 92.16-71.68 158.72-71.68v56.32c-56.32 0-102.4 30.72-122.88 66.56l-30.72 46.080c-10.24 15.36-30.72 30.72-46.080 30.72-10.24 0-15.36-5.12-20.48-5.12l-153.6-61.44v-133.12h56.32v97.28l51.2 20.48-40.96-235.52-138.24 30.72-15.36-56.32 199.68-40.96z" />
<glyph unicode="&#xe94a;" glyph-name="ic_fail_svg" d="M512-64c-281.6 0-512 230.4-512 512s230.4 512 512 512 512-230.4 512-512-230.4-512-512-512zM768 652.8l-51.2 51.2-204.8-204.8-204.8 204.8-51.2-51.2 204.8-204.8-204.8-204.8 51.2-51.2 204.8 204.8 204.8-204.8 51.2 51.2-204.8 204.8 204.8 204.8z" />
<glyph unicode="&#xe94b;" glyph-name="ic_fin_svg" d="M512-64c-281.6 0-512 230.4-512 512s230.4 512 512 512 512-230.4 512-512-230.4-512-512-512zM204.8 448l245.76-245.76 368.64 368.64-81.92 81.92-286.72-286.72-163.84 163.84-81.92-81.92z" />
<glyph unicode="&#xe94e;" glyph-name="ic_error_svg" horiz-adv-x="1147" d="M1066.23-64h-985.309c-44.625 0-80.92 36.296-80.92 80.92 0 14.069 3.69 27.945 10.66 40.147l492.655 862.137c14.371 25.161 41.323 40.784 70.314 40.784 14.005 0 27.869-3.69 40.083-10.671 12.537-7.164 22.949-17.576 30.113-30.113l492.665-862.148c22.129-38.745 8.621-88.268-30.124-110.397-12.203-6.97-26.078-10.66-40.137-10.66zM573.629 927.632c-17.414 0-33.587-9.376-42.219-24.481l-492.644-862.148c-4.186-7.315-6.398-15.645-6.398-24.082 0-26.768 21.784-48.552 48.552-48.552h985.309c8.427 0 16.756 2.212 24.082 6.409 23.24 13.271 31.354 42.985 18.072 66.236l-492.665 862.137c-4.294 7.52-10.541 13.767-18.061 18.072-7.326 4.197-15.645 6.409-24.028 6.409zM573.575 157.183c-23.834 0-43.158 19.324-43.158 43.158s19.324 43.158 43.158 43.158 43.158-19.324 43.158-43.158-19.324-43.158-43.158-43.158zM573.575 491.654c23.834 0 43.158-19.324 43.158-43.158v-129.473c0-23.834-19.324-43.158-43.158-43.158s-43.158 19.324-43.158 43.158v129.473c0 23.834 19.324 43.158 43.158 43.158z" />
<glyph unicode="&#xe94f;" glyph-name="ic_download_svg" horiz-adv-x="819" d="M819.2 605.538h-234.057v354.462h-351.086v-354.462h-234.057l409.6-413.538 409.6 413.538zM0 38.4v-102.4h819.2v102.4h-819.2z" />
<glyph unicode="&#xe950;" glyph-name="arrow-bg_svg" d="M512-64c-282.77 0-512 229.23-512 512s229.23 512 512 512 512-229.23 512-512-229.23-512-512-512zM268.19 478.476v-60.952h370.883l-170.228-170.179 43.154-43.154 243.81 243.81-243.81 243.81-43.106-43.106 170.228-170.228h-370.932z" />
<glyph unicode="&#xe951;" glyph-name="s_svg" d="M512-64c-282.32 0-512 229.68-512 512s229.68 512 512 512 512-229.68 512-512-229.68-512-512-512zM512 926.242c-263.708 0-478.242-214.534-478.242-478.242s214.534-478.242 478.242-478.242 478.242 214.534 478.242 478.242-214.534 478.242-478.242 478.242zM296.667 496.331l2.093 2.082c17.554 17.397 45.844 17.397 63.387 0l68.642-68.079c17.554-17.408 45.844-17.408 63.387 0l167.666 166.282c17.554 17.397 45.844 17.397 63.398 0l2.104-2.082c17.644-17.509 17.757-46.001 0.259-63.657-0.090-0.090-0.18-0.18-0.259-0.259l-217.313-215.524c-26.32-26.095-68.766-26.095-95.086 0l-118.278 117.31c-17.644 17.509-17.768 46.001-0.259 63.657 0.079 0.090 0.169 0.18 0.259 0.27z" />
<glyph unicode="&#xe954;" glyph-name="ic_account2" horiz-adv-x="890" d="M879.304 27.482c0-18.442-14.95-33.391-33.391-33.391s-33.391 14.95-33.391 33.391c0 169.424-120.699 315.053-287.64 351.243-33.050 7.164-35.733 53.276-3.738 64.226 92.122 31.526 154.858 116.472 154.858 213.201 0 124.64-103.21 225.935-230.879 225.935-127.629 0-230.832-101.302-230.832-225.935 0-96.707 62.716-181.673 154.73-213.206 31.98-10.959 29.293-57.050-3.744-64.22-166.761-36.188-287.364-181.824-287.364-351.244v-41.563c0-18.442-14.95-33.391-33.391-33.391s-33.391 14.95-33.391 33.391v41.563c0 172.937 105.528 324.674 260.335 391.065-76.011 53.726-123.957 141.057-123.957 237.604 0 161.798 133.378 292.718 297.615 292.718 164.276 0 297.662-130.912 297.662-292.718 0-96.565-47.958-183.888-124.022-237.605 154.937-66.388 260.542-218.116 260.542-391.064z" />
<glyph unicode="&#xe955;" glyph-name="ic_airplane_svg" d="M806.4-64l-234.667 443.733-230.4-230.4 21.333-149.333-64-64-106.667 192-192 106.667 64 64 149.333-21.333 234.667 234.667-448 230.4 85.333 85.333 550.4-128 234.667 234.667c34.133 34.133 93.867 34.133 128 0s34.133-93.867 0-128l-234.667-234.667 128-550.4-85.333-85.333z" />
<glyph unicode="&#xe956;" glyph-name="ic_gobal_svg" d="M512 960c-281.6 0-512-230.4-512-512s230.4-512 512-512 512 230.4 512 512-230.4 512-512 512v0zM460.8 42.667c-200.533 25.6-358.4 196.267-358.4 405.333 0 29.867 4.267 64 12.8 89.6l243.2-243.2v-51.2c0-55.467 46.933-102.4 102.4-102.4v-98.133zM814.933 170.667c-12.8 42.667-51.2 72.533-98.133 72.533h-51.2v153.6c0 29.867-21.333 51.2-51.2 51.2h-307.2v102.4h102.4c29.867 0 51.2 21.333 51.2 51.2v102.4h102.4c55.467 0 102.4 46.933 102.4 102.4v21.333c149.333-59.733 256-209.067 256-379.733 0-106.667-42.667-204.8-106.667-277.333v0z" />
<glyph unicode="&#xe957;" glyph-name="ic_line_svg" horiz-adv-x="1050" d="M1050.256 534.646c0-94.523-36.759-178.544-112.903-262.564v0c-110.277-126.031-357.087-280.944-412.226-304.574s-47.262 15.754-44.636 28.882c2.626 7.877 7.877 44.636 7.877 44.636 2.626 13.128 2.626 34.133-2.626 47.262-5.251 15.754-28.882 21.005-47.262 26.256-252.062 34.133-438.482 210.051-438.482 420.103 0 233.682 236.308 425.354 525.128 425.354s525.128-191.672 525.128-425.354zM417.477 647.549h-36.759c-5.251 0-10.503-5.251-10.503-10.503v-228.431c0-5.251 5.251-10.503 10.503-10.503h36.759c5.251 0 10.503 5.251 10.503 10.503v228.431c0 5.251-2.626 10.503-10.503 10.503zM672.164 647.549h-36.759c-5.251 0-10.503-5.251-10.503-10.503v-136.533l-105.026 141.785c0 0 0 0 0 0s0 0 0 0 0 0 0 0 0 0 0 0 0 0 0 0 0 0 0 0 0 0 0 0 0 0 0 0 0 0 0 0 0 0 0 0 0 0 0 0 0 0 0 0 0 0 0 0 0 0 0 0 0 0 0 0 0 0 0 0 0 0 0 0 0 0 0 0 0 0 0 0h-36.759c-5.251 0-10.503-5.251-10.503-10.503v-228.431c0-5.251 5.251-10.503 10.503-10.503h36.759c5.251 0 10.503 5.251 10.503 10.503v136.533l105.026-141.785c0 0 2.626-2.626 2.626-2.626s0 0 0 0 0 0 0 0 0 0 0 0 0 0 0 0 0 0 0 0 0 0 0 0 0 0 0 0 0 0 0 0 2.626 0 2.626 0h36.759c5.251 0 10.503 5.251 10.503 10.503v228.431c-5.251 7.877-10.503 13.128-15.754 13.128zM330.831 455.877h-99.774v181.169c0 5.251-5.251 10.503-10.503 10.503h-36.759c-5.251 0-10.503-5.251-10.503-10.503v-228.431c0-2.626 0-5.251 2.626-7.877 0 0 0 0 0 0s0 0 0 0c2.626-2.626 5.251-2.626 7.877-2.626v0h147.036c5.251 0 10.503 5.251 10.503 10.503v36.759c-2.626 5.251-5.251 10.503-10.503 10.503zM874.338 589.785c5.251 0 10.503 5.251 10.503 10.503v36.759c0 5.251-5.251 10.503-10.503 10.503h-147.036c-2.626 0-5.251 0-7.877-2.626 0 0 0 0 0 0s0 0 0 0c-2.626-2.626-2.626-5.251-2.626-7.877v0-228.431c0-2.626 0-5.251 2.626-7.877 0 0 0 0 0 0s0 0 0 0c2.626-2.626 5.251-2.626 7.877-2.626v0h147.036c5.251 0 10.503 5.251 10.503 10.503v36.759c0 5.251-5.251 10.503-10.503 10.503h-99.774v39.385h99.774c5.251 0 10.503 5.251 10.503 10.503v34.133c0 5.251-5.251 10.503-10.503 10.503h-99.774v39.385h99.774z" />
<glyph unicode="&#xe958;" glyph-name="ic_wechat_svg" horiz-adv-x="1170" d="M573.44 723.017c-26.331 0-49.737-23.406-49.737-49.737s23.406-46.811 49.737-46.811c26.331 0 49.737 20.48 49.737 49.737 0 26.331-23.406 46.811-49.737 46.811zM313.051 673.28c0 26.331-20.48 49.737-46.811 49.737s-49.737-20.48-49.737-46.811c0-26.331 20.48-49.737 46.811-49.737s49.737 20.48 49.737 46.811zM813.349 629.394c-108.251-5.851-201.874-38.034-280.869-114.103-76.069-76.069-114.103-166.766-102.4-280.869-43.886 5.851-81.92 11.703-119.954 14.629-14.629 0-29.257 0-40.96-5.851-38.034-20.48-73.143-43.886-117.029-73.143 8.777 35.109 11.703 67.291 23.406 96.549 5.851 23.406 2.926 35.109-17.554 49.737-131.657 90.697-184.32 231.131-143.36 371.566 38.034 128.731 131.657 207.726 257.463 251.611 172.617 55.589 368.64 0 473.966-137.509 38.034-52.663 61.44-108.251 67.291-172.617zM918.674 409.966c-20.48 0-38.034-17.554-40.96-38.034 0-23.406 17.554-40.96 40.96-40.96s38.034 17.554 40.96 38.034c-2.926 23.406-20.48 40.96-40.96 40.96zM664.137 330.971c20.48 0 40.96 17.554 40.96 38.034 0 23.406-17.554 40.96-40.96 40.96s-40.96-20.48-40.96-40.96c2.926-20.48 20.48-38.034 40.96-38.034zM1056.183-49.371c-35.109 14.629-67.291 38.034-99.474 40.96s-67.291-14.629-102.4-20.48c-105.326-11.703-201.874 17.554-280.869 90.697-149.211 137.509-128.731 351.086 43.886 465.189 155.063 99.474 380.343 67.291 488.594-73.143 93.623-122.88 84.846-283.794-32.183-386.194-32.183-29.257-46.811-55.589-23.406-93.623 2.926-2.926 2.926-14.629 5.851-23.406z" />
<glyph unicode="&#xe959;" glyph-name="ic_arrow-01_svg" horiz-adv-x="1229" d="M1191.936 515.584l-401.408 401.408c-40.96 40.96-104.448 40.96-145.408 0s-40.96-104.448 0-145.408l233.472-233.472h-763.904c-57.344 0-102.4-45.056-102.4-102.4s45.056-102.4 102.4-102.4h751.616l-219.136-217.088c-40.96-40.96-40.96-104.448 0-145.408 20.48-20.48 47.104-30.72 71.68-30.72s53.248 10.24 71.68 30.72l401.408 401.408c40.96 38.912 40.96 104.448 0 143.36z" />
<glyph unicode="&#xe95a;" glyph-name="ic_attent_og_svg" horiz-adv-x="1071" d="M660.945 843.636l353.745-702.836c32.582-69.818 4.655-153.6-60.509-186.182-23.273-13.964-46.545-18.618-65.164-18.618h-707.491c-79.127 0-139.636 60.509-139.636 139.636 0 23.273 4.655 41.891 13.964 60.509l353.745 707.491c32.582 69.818 116.364 97.745 186.182 60.509 27.927-13.964 51.2-32.582 65.164-60.509zM535.273 564.364c-27.927 0-46.545-18.618-46.545-46.545v-195.491c0-27.927 18.618-46.545 46.545-46.545h4.655c27.927 0 46.545 18.618 46.545 46.545v195.491c-4.655 23.273-23.273 46.545-51.2 46.545v0zM535.273 224.582c-27.927 0-46.545-18.618-46.545-46.545v-4.655c0-27.927 18.618-46.545 46.545-46.545h4.655c27.927 0 46.545 18.618 46.545 46.545v4.655c-4.655 27.927-23.273 46.545-51.2 46.545v0z" />
<glyph unicode="&#xe96b;" glyph-name="bubble" d="M512 896c282.77 0 512-186.25 512-416 0-229.752-229.23-416-512-416-27.156 0-53.81 1.734-79.824 5.044-109.978-109.978-241.25-129.7-368.176-132.596v26.916c68.536 33.578 128 94.74 128 164.636 0 9.754-0.758 19.33-2.164 28.696-115.796 76.264-189.836 192.754-189.836 323.304 0 229.75 229.23 416 512 416z" />
<glyph unicode="&#xe971;" glyph-name="user" d="M576 253.388v52.78c70.498 39.728 128 138.772 128 237.832 0 159.058 0 288-192 288s-192-128.942-192-288c0-99.060 57.502-198.104 128-237.832v-52.78c-217.102-17.748-384-124.42-384-253.388h896c0 128.968-166.898 235.64-384 253.388z" />
<glyph unicode="&#xe97a;" glyph-name="spinner" d="M384 832c0 70.692 57.308 128 128 128s128-57.308 128-128c0-70.692-57.308-128-128-128s-128 57.308-128 128zM655.53 719.53c0 70.692 57.308 128 128 128s128-57.308 128-128c0-70.692-57.308-128-128-128s-128 57.308-128 128zM832 448c0 35.346 28.654 64 64 64s64-28.654 64-64c0-35.346-28.654-64-64-64s-64 28.654-64 64zM719.53 176.47c0 35.346 28.654 64 64 64s64-28.654 64-64c0-35.346-28.654-64-64-64s-64 28.654-64 64zM448.002 64c0 0 0 0 0 0 0 35.346 28.654 64 64 64s64-28.654 64-64c0 0 0 0 0 0 0-35.346-28.654-64-64-64s-64 28.654-64 64zM176.472 176.47c0 0 0 0 0 0 0 35.346 28.654 64 64 64s64-28.654 64-64c0 0 0 0 0 0 0-35.346-28.654-64-64-64s-64 28.654-64 64zM144.472 719.53c0 0 0 0 0 0 0 53.019 42.981 96 96 96s96-42.981 96-96c0 0 0 0 0 0 0-53.019-42.981-96-96-96s-96 42.981-96 96zM56 448c0 39.765 32.235 72 72 72s72-32.235 72-72c0-39.765-32.235-72-72-72s-72 32.235-72 72z" />
<glyph unicode="&#xe98b;" glyph-name="enlarge2" d="M1024 960v-416l-160 160-192-192-96 96 192 192-160 160zM448 288l-192-192 160-160h-416v416l160-160 192 192z" />
<glyph unicode="&#xe98c;" glyph-name="shrink2" d="M448 384v-416l-160 160-192-192-96 96 192 192-160 160zM1024 864l-192-192 160-160h-416v416l160-160 192 192z" />
<glyph unicode="&#xe9b8;" glyph-name="clipboard" d="M928 832h-288c0 70.692-57.306 128-128 128-70.692 0-128-57.308-128-128h-288c-17.672 0-32-14.328-32-32v-832c0-17.674 14.328-32 32-32h832c17.674 0 32 14.326 32 32v832c0 17.672-14.326 32-32 32zM512 896c35.346 0 64-28.654 64-64s-28.654-64-64-64c-35.346 0-64 28.654-64 64s28.654 64 64 64zM896 0h-768v768h128v-96c0-17.672 14.328-32 32-32h448c17.674 0 32 14.328 32 32v96h128v-768zM448 101.49l-205.254 237.254 58.508 58.51 146.746-114.744 274.742 242.744 58.514-58.508z" />
<glyph unicode="&#xe9bd;" glyph-name="menu" d="M64 768h896v-192h-896zM64 512h896v-192h-896zM64 256h896v-192h-896z" />
<glyph unicode="&#xea0a;" glyph-name="plus" d="M992 576h-352v352c0 17.672-14.328 32-32 32h-192c-17.672 0-32-14.328-32-32v-352h-352c-17.672 0-32-14.328-32-32v-192c0-17.672 14.328-32 32-32h352v-352c0-17.672 14.328-32 32-32h192c17.672 0 32 14.328 32 32v352h352c17.672 0 32 14.328 32 32v192c0 17.672-14.328 32-32 32z" />
<glyph unicode="&#xea0b;" glyph-name="minus" d="M0 544v-192c0-17.672 14.328-32 32-32h960c17.672 0 32 14.328 32 32v192c0 17.672-14.328 32-32 32h-960c-17.672 0-32-14.328-32-32z" />
<glyph unicode="&#xea88;" glyph-name="google" d="M522.2 521.2v-175.6h290.4c-11.8-75.4-87.8-220.8-290.4-220.8-174.8 0-317.4 144.8-317.4 323.2s142.6 323.2 317.4 323.2c99.4 0 166-42.4 204-79l139 133.8c-89.2 83.6-204.8 134-343 134-283 0-512-229-512-512s229-512 512-512c295.4 0 491.6 207.8 491.6 500.2 0 33.6-3.6 59.2-8 84.8l-483.6 0.2z" />
<glyph unicode="&#xea89;" glyph-name="google2" d="M928 960h-832c-52.8 0-96-43.2-96-96v-832c0-52.8 43.2-96 96-96h832c52.8 0 96 43.2 96 96v832c0 52.8-43.2 96-96 96zM519.6 64c-212.2 0-384 171.8-384 384s171.8 384 384 384c103.6 0 190.4-37.8 257.2-100.4l-104.2-100.4c-28.6 27.4-78.4 59.2-153 59.2-131.2 0-238-108.6-238-242.4s107-242.4 238-242.4c152 0 209 109.2 217.8 165.6h-217.8v131.6h362.6c3.2-19.2 6-38.4 6-63.6 0.2-219.4-146.8-375.2-368.6-375.2z" />
<glyph unicode="&#xea8a;" glyph-name="google3" d="M512 960c-282.8 0-512-229.2-512-512s229.2-512 512-512 512 229.2 512 512-229.2 512-512 512zM519.6 64c-212.2 0-384 171.8-384 384s171.8 384 384 384c103.6 0 190.4-37.8 257.2-100.4l-104.2-100.4c-28.6 27.4-78.4 59.2-153 59.2-131.2 0-238-108.6-238-242.4s107-242.4 238-242.4c152 0 209 109.2 217.8 165.6h-217.8v131.6h362.6c3.2-19.2 6-38.4 6-63.6 0.2-219.4-146.8-375.2-368.6-375.2z" />
<glyph unicode="&#xea8f;" glyph-name="google-drive" d="M438 320l-184.6-320h580.6l184.6 320zM992.4 384l-295.6 512h-369.6l295.6-512zM290.2 832l-290.2-502.8 184.8-320 290.2 502.8z" />
<glyph unicode="&#xea90;" glyph-name="facebook" d="M608 768h160v192h-160c-123.514 0-224-100.486-224-224v-96h-128v-192h128v-512h192v512h160l32 192h-192v96c0 17.346 14.654 32 32 32z" />
<glyph unicode="&#xea91;" glyph-name="facebook2" d="M928 960h-832c-52.8 0-96-43.2-96-96v-832c0-52.8 43.2-96 96-96h416v448h-128v128h128v64c0 105.8 86.2 192 192 192h128v-128h-128c-35.2 0-64-28.8-64-64v-64h192l-32-128h-160v-448h288c52.8 0 96 43.2 96 96v832c0 52.8-43.2 96-96 96z" />
<glyph unicode="&#xea92;" glyph-name="instagram" d="M512 867.8c136.8 0 153-0.6 206.8-3 50-2.2 77-10.6 95-17.6 23.8-9.2 41-20.4 58.8-38.2 18-18 29-35 38.4-58.8 7-18 15.4-45.2 17.6-95 2.4-54 3-70.2 3-206.8s-0.6-153-3-206.8c-2.2-50-10.6-77-17.6-95-9.2-23.8-20.4-41-38.2-58.8-18-18-35-29-58.8-38.4-18-7-45.2-15.4-95-17.6-54-2.4-70.2-3-206.8-3s-153 0.6-206.8 3c-50 2.2-77 10.6-95 17.6-23.8 9.2-41 20.4-58.8 38.2-18 18-29 35-38.4 58.8-7 18-15.4 45.2-17.6 95-2.4 54-3 70.2-3 206.8s0.6 153 3 206.8c2.2 50 10.6 77 17.6 95 9.2 23.8 20.4 41 38.2 58.8 18 18 35 29 58.8 38.4 18 7 45.2 15.4 95 17.6 53.8 2.4 70 3 206.8 3zM512 960c-139 0-156.4-0.6-211-3-54.4-2.4-91.8-11.2-124.2-23.8-33.8-13.2-62.4-30.6-90.8-59.2-28.6-28.4-46-57-59.2-90.6-12.6-32.6-21.4-69.8-23.8-124.2-2.4-54.8-3-72.2-3-211.2s0.6-156.4 3-211c2.4-54.4 11.2-91.8 23.8-124.2 13.2-33.8 30.6-62.4 59.2-90.8 28.4-28.4 57-46 90.6-59 32.6-12.6 69.8-21.4 124.2-23.8 54.6-2.4 72-3 211-3s156.4 0.6 211 3c54.4 2.4 91.8 11.2 124.2 23.8 33.6 13 62.2 30.6 90.6 59s46 57 59 90.6c12.6 32.6 21.4 69.8 23.8 124.2 2.4 54.6 3 72 3 211s-0.6 156.4-3 211c-2.4 54.4-11.2 91.8-23.8 124.2-12.6 34-30 62.6-58.6 91-28.4 28.4-57 46-90.6 59-32.6 12.6-69.8 21.4-124.2 23.8-54.8 2.6-72.2 3.2-211.2 3.2v0zM512 711c-145.2 0-263-117.8-263-263s117.8-263 263-263 263 117.8 263 263c0 145.2-117.8 263-263 263zM512 277.4c-94.2 0-170.6 76.4-170.6 170.6s76.4 170.6 170.6 170.6c94.2 0 170.6-76.4 170.6-170.6s-76.4-170.6-170.6-170.6zM846.8 721.4c0-33.91-27.49-61.4-61.4-61.4s-61.4 27.49-61.4 61.4c0 33.91 27.49 61.4 61.4 61.4s61.4-27.49 61.4-61.4z" />
<glyph unicode="&#xea93;" glyph-name="whatsapp" d="M873 811.2c-95.8 96-223.2 148.8-359 148.8-279.6 0-507.2-227.6-507.2-507.4 0-89.4 23.4-176.8 67.8-253.6l-72-263 269 70.6c74.2-40.4 157.6-61.8 242.4-61.8h0.2c0 0 0 0 0 0 279.6 0 507.4 227.6 507.4 507.4 0 135.6-52.8 263-148.6 359zM514.2 30.4v0c-75.8 0-150 20.4-214.8 58.8l-15.4 9.2-159.6-41.8 42.6 155.6-10 16c-42.4 67-64.6 144.6-64.6 224.4 0 232.6 189.2 421.8 422 421.8 112.6 0 218.6-44 298.2-123.6 79.6-79.8 123.4-185.6 123.4-298.4-0.2-232.8-189.4-422-421.8-422zM745.4 346.4c-12.6 6.4-75 37-86.6 41.2s-20 6.4-28.6-6.4c-8.4-12.6-32.8-41.2-40.2-49.8-7.4-8.4-14.8-9.6-27.4-3.2s-53.6 19.8-102 63c-37.6 33.6-63.2 75.2-70.6 87.8s-0.8 19.6 5.6 25.8c5.8 5.6 12.6 14.8 19 22.2s8.4 12.6 12.6 21.2c4.2 8.4 2.2 15.8-1 22.2s-28.6 68.8-39 94.2c-10.2 24.8-20.8 21.4-28.6 21.8-7.4 0.4-15.8 0.4-24.2 0.4s-22.2-3.2-33.8-15.8c-11.6-12.6-44.4-43.4-44.4-105.8s45.4-122.6 51.8-131.2c6.4-8.4 89.4-136.6 216.6-191.4 30.2-13 53.8-20.8 72.2-26.8 30.4-9.6 58-8.2 79.8-5 24.4 3.6 75 30.6 85.6 60.2s10.6 55 7.4 60.2c-3 5.6-11.4 8.8-24.2 15.2z" />
<glyph unicode="&#xea95;" glyph-name="telegram" d="M512 960c-282.8 0-512-229.2-512-512s229.2-512 512-512 512 229.2 512 512-229.2 512-512 512zM763.6 609l-84-395.8c-5.8-28.2-22.8-34.8-46.4-21.8l-128 94.6-61.4-59.8c-7.2-7-12.8-12.8-25.6-12.8-16.6 0-13.8 6.2-19.4 22l-43.6 143.2-126.6 39.4c-27.4 8.4-27.6 27.2 6.2 40.6l493.2 190.4c22.4 10.2 44.2-5.4 35.6-40z" />
<glyph unicode="&#xea96;" glyph-name="twitter" d="M1024 733.6c-37.6-16.8-78.2-28-120.6-33 43.4 26 76.6 67.2 92.4 116.2-40.6-24-85.6-41.6-133.4-51-38.4 40.8-93 66.2-153.4 66.2-116 0-210-94-210-210 0-16.4 1.8-32.4 5.4-47.8-174.6 8.8-329.4 92.4-433 219.6-18-31-28.4-67.2-28.4-105.6 0-72.8 37-137.2 93.4-174.8-34.4 1-66.8 10.6-95.2 26.2 0-0.8 0-1.8 0-2.6 0-101.8 72.4-186.8 168.6-206-17.6-4.8-36.2-7.4-55.4-7.4-13.6 0-26.6 1.4-39.6 3.8 26.8-83.4 104.4-144.2 196.2-146-72-56.4-162.4-90-261-90-17 0-33.6 1-50.2 3 93.2-59.8 203.6-94.4 322.2-94.4 386.4 0 597.8 320.2 597.8 597.8 0 9.2-0.2 18.2-0.6 27.2 41 29.4 76.6 66.4 104.8 108.6z" />
<glyph unicode="&#xea97;" glyph-name="vine" d="M960.8 451c-26.4-6-51.8-8.8-74.8-8.8-129.2 0-228.6 90.2-228.6 247.2 0 77 29.8 116.8 71.8 116.8 40 0 66.6-35.8 66.6-108.6 0-41.4-11-86.8-19.2-113.6 0 0 39.8-69.4 148.6-48.2 23.2 51.4 35.6 117.8 35.6 176 0 156.8-80 248.2-226.6 248.2-150.8 0-239-115.8-239-268.6 0-151.4 70.8-281.2 187.4-340.4-49-98.2-111.4-184.6-176.6-249.8-118 142.8-224.8 333.2-268.6 705h-174.2c80.6-619.2 320.4-816.4 384-854.2 35.8-21.6 66.8-20.6 99.6-2 51.6 29.2 206.2 184 292 365 36 0 79.2 4.2 122.2 14v122z" />
<glyph unicode="&#xea98;" glyph-name="vk" d="M928 960h-832c-52.8 0-96-43.2-96-96v-832c0-52.8 43.2-96 96-96h832c52.8 0 96 43.2 96 96v832c0 52.8-43.2 96-96 96zM829.4 243.2l-93.6-1.4c0 0-20.2-4-46.6 14.2-35 24-68 86.6-93.8 78.4-26-8.2-25.2-64.4-25.2-64.4s0.2-12-5.8-18.4c-6.4-7-19.2-8.4-19.2-8.4h-41.8c0 0-92.4-5.6-173.8 79.2-88.8 92.4-167.2 275.8-167.2 275.8s-4.6 12 0.4 17.8c5.6 6.6 20.6 7 20.6 7l100.2 0.6c0 0 9.4-1.6 16.2-6.6 5.6-4 8.6-11.8 8.6-11.8s16.2-41 37.6-78c41.8-72.2 61.4-88 75.6-80.4 20.6 11.2 14.4 102.2 14.4 102.2s0.4 33-10.4 47.6c-8.4 11.4-24.2 14.8-31 15.6-5.6 0.8 3.6 13.8 15.6 19.8 18 8.8 49.8 9.4 87.4 9 29.2-0.2 37.8-2.2 49.2-4.8 34.6-8.4 22.8-40.6 22.8-117.8 0-24.8-4.4-59.6 13.4-71 7.6-5 26.4-0.8 73.4 79 22.2 37.8 39 82.2 39 82.2s3.6 8 9.2 11.4c5.8 3.4 13.6 2.4 13.6 2.4l105.4 0.6c0 0 31.6 3.8 36.8-10.6 5.4-15-11.8-50-54.8-107.4-70.6-94.2-78.6-85.4-19.8-139.8 56-52 67.6-77.4 69.6-80.6 22.8-38.4-26-41.4-26-41.4z" />
<glyph unicode="&#xea9a;" glyph-name="sina-weibo" d="M430.2 62c-169.6-16.8-316 60-327 171.2-11 111.4 117.6 215 287 231.8 169.6 16.8 316-60 326.8-171.2 11.2-111.4-117.4-215.2-286.8-231.8zM769.2 431.4c-14.4 4.4-24.4 7.2-16.8 26.2 16.4 41.2 18 76.6 0.2 102-33.2 47.4-124.2 45-228.4 1.2 0 0-32.8-14.2-24.4 11.6 16 51.6 13.6 94.6-11.4 119.6-56.6 56.6-207-2.2-336-131.2-96.4-96.2-152.4-198.8-152.4-287.4 0-169.2 217.2-272.2 429.6-272.2 278.4 0 463.8 161.8 463.8 290.2 0 77.8-65.4 121.8-124.2 140zM954.2 741.4c-67.2 74.6-166.4 103-258 83.6v0c-21.2-4.6-34.6-25.4-30-46.4 4.6-21.2 25.2-34.6 46.4-30 65.2 13.8 135.6-6.4 183.4-59.4s60.8-125.2 40.2-188.4v0c-6.6-20.6 4.6-42.6 25.2-49.4 20.6-6.6 42.6 4.6 49.4 25.2v0.2c28.8 88.4 10.6 190-56.6 264.6zM850.8 648c-32.8 36.4-81.2 50.2-125.6 40.6-18.2-3.8-29.8-22-26-40.2 4-18.2 22-29.8 40-25.8v0c21.8 4.6 45.4-2.2 61.4-19.8 16-17.8 20.4-42 13.4-63.2v0c-5.6-17.6 4-36.8 21.8-42.6 17.8-5.6 36.8 4 42.6 21.8 14 43.4 5.2 93-27.6 129.2zM439.6 263.4c-6-10.2-19-15-29.2-10.8-10.2 4-13.2 15.6-7.4 25.4 6 9.8 18.6 14.6 28.6 10.8 10-3.6 13.6-15 8-25.4zM385.4 194.2c-16.4-26.2-51.6-37.6-78-25.6-26 11.8-33.8 42.2-17.4 67.8 16.2 25.4 50.2 36.8 76.4 25.8 26.6-11.4 35.2-41.6 19-68zM447 379.4c-80.6 21-171.8-19.2-206.8-90.2-35.8-72.4-1.2-153 80.2-179.4 84.4-27.2 184 14.6 218.6 92.6 34.2 76.6-8.4 155.2-92 177z" />
<glyph unicode="&#xea9b;" glyph-name="rss" d="M136.294 209.070c-75.196 0-136.292-61.334-136.292-136.076 0-75.154 61.1-135.802 136.292-135.802 75.466 0 136.494 60.648 136.494 135.802-0.002 74.742-61.024 136.076-136.494 136.076zM0.156 612.070v-196.258c127.784 0 247.958-49.972 338.458-140.512 90.384-90.318 140.282-211.036 140.282-339.3h197.122c-0.002 372.82-303.282 676.070-675.862 676.070zM0.388 960v-196.356c455.782 0 826.756-371.334 826.756-827.644h196.856c0 564.47-459.254 1024-1023.612 1024z" />
<glyph unicode="&#xea9d;" glyph-name="youtube" d="M1013.8 652.8c0 0-10 70.6-40.8 101.6-39 40.8-82.6 41-102.6 43.4-143.2 10.4-358.2 10.4-358.2 10.4h-0.4c0 0-215 0-358.2-10.4-20-2.4-63.6-2.6-102.6-43.4-30.8-31-40.6-101.6-40.6-101.6s-10.2-82.8-10.2-165.8v-77.6c0-82.8 10.2-165.8 10.2-165.8s10-70.6 40.6-101.6c39-40.8 90.2-39.4 113-43.8 82-7.8 348.2-10.2 348.2-10.2s215.2 0.4 358.4 10.6c20 2.4 63.6 2.6 102.6 43.4 30.8 31 40.8 101.6 40.8 101.6s10.2 82.8 10.2 165.8v77.6c-0.2 82.8-10.4 165.8-10.4 165.8zM406.2 315.2v287.8l276.6-144.4-276.6-143.4z" />
<glyph unicode="&#xeaa0;" glyph-name="vimeo" d="M1023.6 686c-4.6-99.6-74.2-236.2-208.8-409.4-139.2-180.8-257-271.4-353.4-271.4-59.6 0-110.2 55-151.4 165.2-27.6 101-55 202-82.6 303-30.6 110.2-63.4 165.2-98.6 165.2-7.6 0-34.4-16.2-80.4-48.2l-48.2 62c50.6 44.4 100.4 88.8 149.4 133.2 67.4 58.2 118 88.8 151.8 92 79.6 7.6 128.8-46.8 147.2-163.4 19.8-125.8 33.6-204 41.4-234.6 23-104.4 48.2-156.6 75.8-156.6 21.4 0 53.6 33.8 96.6 101.6 42.8 67.6 65.8 119.2 69 154.6 6.2 58.4-16.8 87.8-69 87.8-24.6 0-49.8-5.6-75.8-16.8 50.4 164.8 146.4 244.8 288.4 240.2 105-2.8 154.6-71 148.6-204.4z" />
<glyph unicode="&#xeaa3;" glyph-name="flickr" d="M0 416c0 123.712 100.288 224 224 224s224-100.288 224-224c0-123.712-100.288-224-224-224s-224 100.288-224 224zM576 416c0 123.712 100.288 224 224 224s224-100.288 224-224c0-123.712-100.288-224-224-224s-224 100.288-224 224z" />
<glyph unicode="&#xeaa4;" glyph-name="flickr2" d="M800 544c-70.58 0-128-57.42-128-128s57.42-128 128-128c70.58 0 128 57.42 128 128s-57.42 128-128 128zM800 640v0c123.71 0 224-100.288 224-224 0-123.71-100.29-224-224-224s-224 100.29-224 224c0 123.712 100.29 224 224 224zM0 416c0 123.712 100.288 224 224 224s224-100.288 224-224c0-123.712-100.288-224-224-224s-224 100.288-224 224z" />
<glyph unicode="&#xeaae;" glyph-name="dropbox" d="M736 928l-224-192 288-192 224 192zM512 736l-224 192-288-192 224-192zM800 544l224-192-288-160-224 192zM512 384l-288 160-224-192 288-160zM728.156 114.43l-216.156 185.278-216.158-185.278-135.842 75.468v-93.898l352-160 352 160v93.898z" />
<glyph unicode="&#xeaaf;" glyph-name="onedrive" d="M350.868 131.612c-60.274 15.060-93.856 62.97-93.962 134.064-0.032 22.726 1.612 33.62 7.286 48.236 13.908 35.834 50.728 62.872 99.176 72.822 24.11 4.95 31.536 10.266 31.536 22.572 0 3.862 2.872 15.36 6.378 25.552 15.932 46.306 45.43 84.91 76.948 100.702 32.99 16.526 49.642 20.254 89.548 20.040 56.674-0.304 84.952-12.598 124.496-54.128l21.75-22.842 19.484 6.742c94.3 32.636 188.306-22.916 195.888-115.756l2.072-25.398 18.57-6.65c53.032-19.004 77.96-58.904 73.442-117.556-2.958-38.358-20.89-68.98-49.3-84.184l-13.356-7.146-296.822-0.57c-228.094-0.44-300.6 0.368-313.134 3.5v0zM103.218 174.034c-36.176 9.086-74.506 42.854-92.48 81.47-10.196 21.906-10.738 25.128-10.738 63.88 0 36.864 0.87 42.778 8.988 61.080 17.11 38.582 49.894 66.46 91.030 77.408 8.684 2.312 16.842 6 18.128 8.196 1.29 2.198 2.722 14.164 3.182 26.592 2.866 77.196 50.79 145.214 117.708 167.056 36.154 11.8 83.572 12.898 122.896-3.726 12.47-5.274 11.068-6.404 37.438 30.14 15.594 21.612 45.108 44.49 70.9 58.18 27.838 14.776 56.792 21.584 91.412 21.494 96.768-0.252 180.166-64.22 211.004-161.848 9.854-31.192 9.362-39.926-2.26-40.184-5.072-0.112-19.604-3.064-32.292-6.558l-23.072-6.358-21.052 22.25c-59.362 62.734-156.238 76.294-238.592 33.396-32.9-17.138-59.34-41.746-79.31-73.81-14.236-22.858-32.39-65.504-32.39-76.094 0-7.51-5.754-11.264-30.332-19.782-76.094-26.376-120.508-87.282-120.476-165.218 0.010-28.368 6.922-63.074 16.52-82.956 3.618-7.494 5.634-14.622 4.484-15.836-2.946-3.106-97.608-2.060-110.696 1.228v0z" />
<glyph unicode="&#xeab0;" glyph-name="github" d="M512.008 947.358c-282.738 0-512.008-229.218-512.008-511.998 0-226.214 146.704-418.132 350.136-485.836 25.586-4.738 34.992 11.11 34.992 24.632 0 12.204-0.48 52.542-0.696 95.324-142.448-30.976-172.504 60.41-172.504 60.41-23.282 59.176-56.848 74.916-56.848 74.916-46.452 31.778 3.51 31.124 3.51 31.124 51.4-3.61 78.476-52.766 78.476-52.766 45.672-78.27 119.776-55.64 149.004-42.558 4.588 33.086 17.852 55.68 32.506 68.464-113.73 12.942-233.276 56.85-233.276 253.032 0 55.898 20.004 101.574 52.76 137.428-5.316 12.9-22.854 64.972 4.952 135.5 0 0 43.006 13.752 140.84-52.49 40.836 11.348 84.636 17.036 128.154 17.234 43.502-0.198 87.336-5.886 128.256-17.234 97.734 66.244 140.656 52.49 140.656 52.49 27.872-70.528 10.35-122.6 5.036-135.5 32.82-35.856 52.694-81.532 52.694-137.428 0-196.654-119.778-239.95-233.79-252.624 18.364-15.89 34.724-47.046 34.724-94.812 0-68.508-0.596-123.644-0.596-140.508 0-13.628 9.222-29.594 35.172-24.566 203.322 67.776 349.842 259.626 349.842 485.768 0 282.78-229.234 511.998-511.992 511.998z" />
<glyph unicode="&#xeab9;" glyph-name="tumblr" d="M576.032 512l-0.002-234.184c0-59.418-0.77-93.656 5.53-110.5 6.25-16.754 21.918-34.146 38.99-44.202 22.684-13.588 48.542-20.376 77.708-20.376 51.854 0 82.478 6.848 133.742 40.54v-153.944c-43.7-20.552-81.866-32.594-117.324-40.922-35.5-8.242-73.86-12.406-115.064-12.406-46.828 0-74.456 5.886-110.41 17.656-35.958 11.868-66.66 28.806-92.020 50.54-25.45 21.922-43.022 45.208-52.848 69.832-9.826 24.636-14.716 60.414-14.716 107.244v359.1h-137.426v145.006c40.208 13.042 85.164 31.788 113.78 56.152 28.754 24.45 51.766 53.706 69.106 87.944 17.392 34.146 29.348 77.712 35.872 130.516h165.084l-0.002-255.996h255.968v-192h-255.968z" />
<glyph unicode="&#xeabb;" glyph-name="yahoo" d="M568.2 371v0c112.6 197.6 298.6 520 349.6 589-22.4-15-56.8-22.6-88.4-29.8l-47.8 29.8c-38.4-71.6-180-303-270.2-451.2-91.4 151.4-199.6 326.2-270.2 451.2-56-12-79.2-12.6-135 0v0 0c0 0 0 0 0 0v0c110.8-166.8 288.2-484.6 348.6-589v0l-8.2-435 64.8 29.8v0.8l64.8-30.6-8 435z" />
<glyph unicode="&#xeabe;" glyph-name="appleinc" d="M791.498 415.908c-1.294 129.682 105.758 191.876 110.542 194.966-60.152 88.020-153.85 100.078-187.242 101.472-79.742 8.074-155.596-46.948-196.066-46.948-40.368 0-102.818 45.754-168.952 44.552-86.916-1.292-167.058-50.538-211.812-128.38-90.304-156.698-23.126-388.84 64.89-515.926 43.008-62.204 94.292-132.076 161.626-129.58 64.842 2.588 89.362 41.958 167.756 41.958s100.428-41.958 169.050-40.67c69.774 1.296 113.982 63.398 156.692 125.796 49.39 72.168 69.726 142.038 70.924 145.626-1.548 0.706-136.060 52.236-137.408 207.134zM662.562 796.478c35.738 43.358 59.86 103.512 53.28 163.522-51.478-2.096-113.878-34.29-150.81-77.55-33.142-38.376-62.148-99.626-54.374-158.436 57.466-4.484 116.128 29.204 151.904 72.464z" />
<glyph unicode="&#xeac0;" glyph-name="android" d="M896 576c-35.2 0-64-28.8-64-64v-256c0-35.2 28.8-64 64-64s64 28.8 64 64v256c0 35.2-28.8 64-64 64zM128 576c-35.2 0-64-28.8-64-64v-256c0-35.2 28.8-64 64-64s64 28.8 64 64v256c0 35.2-28.802 64-64 64zM224 224c0-53.020 42.98-96 96-96v0-128c0-35.2 28.8-64 64-64s64 28.8 64 64v128h128v-128c0-35.2 28.8-64 64-64s64 28.8 64 64v128c53.020 0 96 42.98 96 96v352h-576v-352zM798.216 639.998c-9.716 87.884-59.004 163.792-129.62 209.646l32.024 64.046c7.904 15.806 1.496 35.028-14.31 42.932s-35.030 1.496-42.932-14.312l-32.142-64.286-8.35 3.316c-28.568 9.502-59.122 14.66-90.886 14.66-31.762 0-62.316-5.158-90.888-14.656l-8.348-3.316-32.142 64.282c-7.904 15.808-27.128 22.212-42.932 14.312-15.808-7.904-22.214-27.126-14.312-42.932l32.022-64.046c-70.616-45.852-119.904-121.762-129.622-209.644v-32h574.222v31.998h-1.784zM416 704c-17.674 0-32 14.328-32 32 0 17.648 14.288 31.958 31.93 31.996 0.032 0 0.062-0.002 0.094-0.002 0.018 0 0.036 0.002 0.052 0.002 17.638-0.042 31.924-14.35 31.924-31.996 0-17.672-14.326-32-32-32zM608 704c-17.674 0-32 14.328-32 32 0 17.646 14.286 31.954 31.924 31.996 0.016 0 0.034-0.002 0.050-0.002 0.032 0 0.064 0.002 0.096 0.002 17.64-0.038 31.93-14.348 31.93-31.996 0-17.672-14.326-32-32-32z" />
<glyph unicode="&#xeac2;" glyph-name="windows8" d="M0.35 448l-0.35 312.074 384 52.144v-364.218zM448 821.518l511.872 74.482v-448h-511.872zM959.998 384l-0.126-448-511.872 72.016v375.984zM384 16.164l-383.688 52.594-0.020 315.242h383.708z" />
<glyph unicode="&#xeaca;" glyph-name="linkedin2" d="M384 576h177.106v-90.782h2.532c24.64 44.194 84.958 90.782 174.842 90.782 186.946 0 221.52-116.376 221.52-267.734v-308.266h-184.61v273.278c0 65.184-1.334 149.026-96.028 149.026-96.148 0-110.82-70.986-110.82-144.292v-278.012h-184.542v576zM64 576h192v-576h-192v576zM256 736c0-53.019-42.981-96-96-96s-96 42.981-96 96c0 53.019 42.981 96 96 96s96-42.981 96-96z" />
<glyph unicode="&#xead9;" glyph-name="chrome" d="M258.278 513.458l-146.532 253.802c93.818 117.464 238.234 192.74 400.254 192.74 187.432 0 351.31-100.736 440.532-251h-417.77c-7.504 0.65-15.092 1-22.762 1-121.874 0-224.578-83.644-253.722-196.542zM695.306 635h293.46c22.74-57.93 35.234-121.004 35.234-187 0-280.826-226.1-508.804-506.186-511.926l209.394 362.678c29.48 42.378 46.792 93.826 46.792 149.248 0 73.17-30.164 139.42-78.694 187zM326 448c0 102.56 83.44 186 186 186s186-83.44 186-186c0-102.56-83.44-186-186-186s-186 83.44-186 186zM582.182 195.558l-146.578-253.878c-246.532 36.884-435.604 249.516-435.604 506.32 0 91.218 23.884 176.846 65.696 251.024l209.030-362.054c41.868-89.112 132.476-150.97 237.274-150.97 24.3 0 47.836 3.34 70.182 9.558z" />
<glyph unicode="&#xeada;" glyph-name="firefox" d="M1022.526 625.86l-11.86-76.080c0 0-16.954 140.856-37.732 193.514-31.846 80.688-46.014 80.040-46.108 79.922 21.33-54.204 17.462-83.324 17.462-83.324s-37.792 102.998-137.712 135.768c-110.686 36.282-170.57 26.364-177.488 24.486-1.050 0.008-2.064 0.010-3.030 0.010 0.818-0.062 1.612-0.146 2.426-0.212-0.034-0.020-0.090-0.042-0.082-0.052 0.45-0.548 122.306-21.302 143.916-50.996 0 0-51.76 0-103.272-14.842-2.328-0.666 189.524-23.964 228.746-215.674 0 0-21.030 43.876-47.040 51.328 17.106-52.036 12.714-150.776-3.576-199.85-2.096-6.312-4.24 27.282-36.328 41.75 10.28-73.646-0.616-190.456-51.708-222.632-3.982-2.504 32.030 115.31 7.242 69.762-142.708-218.802-311.404-100.972-387.248-49.11 38.866-8.462 112.654 1.318 145.314 25.612 0.042 0.030 0.078 0.056 0.118 0.086 35.468 24.252 56.472 41.964 75.334 37.772 18.874-4.214 31.438 14.726 16.78 31.53-14.676 16.838-50.314 39.978-98.524 27.366-34-8.904-76.134-46.522-140.448-8.432-49.364 29.25-54.012 53.546-54.45 70.376 1.218 5.966 2.754 11.536 4.576 16.624 5.682 15.87 22.912 20.658 32.494 24.438 16.256-2.792 30.262-7.862 44.968-15.406 0.19 4.894 0.252 11.39-0.018 18.76 1.41 2.802 0.538 11.252-1.722 21.58-1.302 10.308-3.42 20.974-6.752 30.692 0.012 0.002 0.020 0.010 0.030 0.014 0.056 0.018 0.108 0.040 0.156 0.070 0.078 0.044 0.146 0.112 0.208 0.19 0.012 0.020 0.030 0.034 0.044 0.052 0.082 0.124 0.154 0.272 0.198 0.466 1.020 4.618 12.022 13.524 25.718 23.1 12.272 8.58 26.702 17.696 38.068 24.752 10.060 6.248 17.72 10.882 19.346 12.098 0.618 0.466 1.358 1.012 2.164 1.636 0.15 0.116 0.3 0.232 0.454 0.354 0.094 0.074 0.19 0.148 0.286 0.226 5.41 4.308 13.484 12.448 15.178 29.578 0.004 0.042 0.010 0.080 0.012 0.122 0.050 0.504 0.092 1.014 0.13 1.534 0.028 0.362 0.050 0.726 0.072 1.096 0.014 0.284 0.032 0.566 0.044 0.856 0.030 0.674 0.050 1.364 0.060 2.064 0 0.040 0.002 0.076 0.004 0.116 0.022 1.658-0.006 3.386-0.104 5.202-0.054 1.014-0.126 1.93-0.298 2.762-0.008 0.044-0.018 0.092-0.028 0.136-0.018 0.082-0.036 0.164-0.058 0.244-0.036 0.146-0.076 0.292-0.122 0.43-0.006 0.018-0.010 0.032-0.016 0.046-0.052 0.16-0.112 0.314-0.174 0.464-0.004 0.006-0.004 0.010-0.006 0.016-1.754 4.108-8.32 5.658-35.442 6.118-0.026 0.002-0.050 0.002-0.076 0.002v0c-11.066 0.188-25.538 0.194-44.502 0.118-33.25-0.134-51.628 32.504-57.494 45.132 8.040 44.46 31.276 76.142 69.45 97.626 0.722 0.406 0.58 0.742-0.274 0.978 7.464 4.514-90.246 0.124-135.186-57.036-39.888 9.914-74.654 9.246-104.616 2.214-5.754 0.162-12.924 0.88-21.434 2.652-19.924 18.056-48.448 51.402-49.976 91.208 0 0-0.092-0.072-0.252-0.204-0.020 0.382-0.056 0.76-0.072 1.142 0 0-60.716-46.664-51.628-173.882-0.022-2.036-0.064-3.986-0.12-5.874-16.432-22.288-24.586-41.020-25.192-45.156-14.56-29.644-29.334-74.254-41.356-141.98 0 0 8.408 26.666 25.284 56.866-12.412-38.022-22.164-97.156-16.436-185.856 0 0 1.514 19.666 6.874 47.994 4.186-55.010 22.518-122.924 68.858-202.788 88.948-153.32 225.67-230.74 376.792-242.616 26.836-2.212 54.050-2.264 81.424-0.186 2.516 0.178 5.032 0.364 7.55 0.574 30.964 2.174 62.134 6.852 93.238 14.366 425.172 102.798 378.942 616.198 378.942 616.198z" />
<glyph unicode="&#xeadb;" glyph-name="IE" d="M734.202 331.17h236.050c1.82 16.37 2.548 33.098 2.548 50.196 0 80.224-21.534 155.468-59.124 220.266 38.88 103.308 37.492 190.988-14.556 243.39-49.496 49.28-182.29 41.28-332.412-25.198-11.104 0.84-22.318 1.272-33.638 1.272-206.048 0-378.926-141.794-426.708-332.85 64.638 82.754 132.638 142.754 223.478 186.448-8.26-7.74-56.454-55.652-64.56-63.764-239.548-239.478-315.090-552.306-233.806-633.604 61.786-61.774 173.758-51.342 302.376 11.648 59.806-30.458 127.5-47.63 199.218-47.63 193.134 0 356.804 124.316 416.090 297.448h-237.868c-32.734-60.382-96.748-101.48-170.218-101.48-73.468 0-137.484 41.098-170.216 101.48-14.55 27.274-22.914 58.554-22.914 91.656v0.722h386.26zM348.302 447.196c5.456 97.11 86.2 174.584 184.766 174.584s179.312-77.472 184.766-174.584h-369.532zM896.966 796.192c33.526-33.88 32.688-96.214 4.012-174.022-49.136 74.908-120.518 133.936-204.792 167.64 90.106 38.638 163.406 43.756 200.78 6.382zM93.482-7.256c-42.782 42.796-29.884 132.618 25.23 240.832 34.308-96.27 101.156-177.090 187.336-229.154-95.43-43.318-173.536-50.674-212.566-11.678z" />
<glyph unicode="&#xeadc;" glyph-name="edge" d="M15.4 505.4c30 236.8 191.6 451.6 481.2 454.6 174.8-3.4 318.6-82.6 404.2-233.6 43-78.8 56.4-161.6 59.2-253v-107.4h-642.6c3-265 390-256 556.6-139.2v-215.8c-97.6-58.6-319-111-490.4-43.6-146 54.8-250 207.6-249.4 354.6-4.8 190.6 94.8 316.8 249.4 388.6-32.8-40.6-57.8-85.4-70.8-163h362.8c0 0 21.2 216.8-205.4 216.8-213.6-7.4-367.6-131.6-454.8-259v0z" />
<glyph unicode="&#xeadd;" glyph-name="safari" d="M512 960c-282.8 0-512-229.2-512-512s229.2-512 512-512 512 229.2 512 512-229.2 512-512 512zM958.4 487.2l-1 10.6c0.2-3.6 0.6-7 1-10.6zM888.4 691.2l-7.2 10.8c2.4-3.6 4.8-7.2 7.2-10.8zM860.6 729.4l-4.4 5.4c1.6-1.8 3-3.6 4.4-5.4zM798.6 792.4l-5.4 4.4c2-1.6 3.6-3 5.4-4.4zM766 817.2l-10.8 7.2c3.6-2.4 7.2-4.8 10.8-7.2zM561.8 893.2l-10.8 1c3.6-0.2 7.2-0.6 10.8-1zM472.8 894.4l-10.8-1c3.6 0.2 7.2 0.6 10.8 1zM268.8 824.4l-10.8-7.2c3.6 2.4 7.2 4.8 10.8 7.2zM230.6 796.6l-5.2-4.2c1.8 1.4 3.4 2.8 5.2 4.2zM167.6 734.6l-4.4-5.4c1.6 1.8 3 3.6 4.4 5.4zM142.8 702l-7.2-10.8c2.4 3.6 4.8 7.2 7.2 10.8zM66.8 497.8l-1-10.8c0.2 3.6 0.6 7.2 1 10.8zM65.6 408.8l1-10.8c-0.2 3.6-0.6 7.2-1 10.8zM135.6 205l7.2-10.8c-2.4 3.4-4.8 7-7.2 10.8zM144 192.4l79.8 53.4-8.8 13.4-79.8-53.4c-36.2 56.2-60 120.8-68 190.4l47.8 4.8-1.6 16-47.8-4.8c-0.8 9.2-1.2 18.6-1.4 28h96v16h-96c0.2 9.4 0.6 18.6 1.4 28l47.8-4.6 1.6 16-47.8 4.6c8 69.6 32 134.2 68.2 190.4l79.8-53.4 8.8 13.4-80 53c5.4 7.6 10.8 15.2 16.6 22.4l37-30.4 10.2 12.4-37 30.4c6 7.2 12.4 14 18.8 20.8l67.8-67.8 11.4 11.4-67.8 67.8c6.8 6.4 13.6 12.8 20.6 18.8l30.4-37.2 12.4 10.2-30.4 37c7.4 5.8 14.8 11.4 22.4 16.8l53.4-79.8 13.4 8.8-53.4 79.8c56.2 36.2 120.8 60 190.4 68l4.8-47.8 16 1.6-4.8 47.8c9.2 0.8 18.6 1.2 28 1.4v-96h16v96c9.4-0.2 18.6-0.6 28-1.4l-4.6-47.8 16-1.6 4.6 47.8c69.6-8 134.2-32 190.4-68.2l-53.4-79.8 13.4-8.8 53.4 79.8c7.6-5.4 15.2-10.8 22.4-16.6l-30.4-37 12.4-10.2 30.4 37c7.2-6 14-12.4 20.8-18.8l-25.6-25-350-233.4-233.4-350-25-25c-6.4 6.8-12.8 13.6-18.8 20.6l37 30.4-10.2 12.4-37-30.4c-5.8 7.2-11.2 14.8-16.6 22.4zM167.6 161.4c-1.4 1.8-2.8 3.4-4.2 5.2l4.2-5.2zM225.4 103.6l5.2-4.2c-1.8 1.4-3.4 2.8-5.2 4.2zM258 79l10.8-7.2c-3.6 2.2-7.2 4.6-10.8 7.2zM462.2 2.8l10.8-1c-3.6 0.2-7.2 0.6-10.8 1zM551.2 1.6l10.6 1c-3.6-0.2-7-0.6-10.6-1zM755.2 71.6l10.8 7.2c-3.6-2.4-7.2-4.8-10.8-7.2zM793.4 99.4l5.4 4.4c-1.8-1.6-3.6-3-5.4-4.4zM828.4 130.8l0.8 0.8c-0.2-0.2-0.6-0.6-0.8-0.8zM856.4 161.4l4.4 5.4c-1.6-1.8-3-3.6-4.4-5.4zM863.4 170l-37 30.4-10.2-12.4 37-30.4c-6-7.2-12.4-14-18.8-20.8l-67.8 67.8-11.4-11.4 67.8-67.8c-6.8-6.4-13.6-12.8-20.6-18.8l-30.4 37.2-12.4-10.2 30.4-37c-7.4-5.8-14.8-11.4-22.4-16.8l-53.4 79.8-13.4-8.8 53.4-79.8c-56.2-36.2-120.8-60-190.4-68l-4.8 47.8-16-1.6 4.8-47.8c-9.2-0.8-18.6-1.2-28-1.4v96h-16v-96c-9.4 0.2-18.6 0.6-28 1.4l4.6 47.8-16 1.6-4.6-47.8c-69.6 8-134.2 32-190.4 68.2l53.4 79.8-13.4 8.8-53-79.8c-7.6 5.4-15.2 10.8-22.4 16.6l30.4 37-12.4 10.2-30.4-37c-7.2 6-14 12.4-20.8 18.8l25.2 25 350 233.4 233.4 350 25 25c6.4-6.8 12.8-13.6 18.8-20.6l-37-30.4 10.2-12.4 37 30.4c5.8-7.4 11.4-14.8 16.8-22.4l-79.8-53.4 8.8-13.4 79.8 53.4c36.2-56.2 60-120.8 68-190.4l-47.8-4.8 1.6-16 47.8 4.8c0.8-9.2 1.2-18.6 1.4-28h-96v-16h96c-0.2-9.4-0.6-18.6-1.4-28l-47.8 4.6-1.6-16 47.8-4.6c-8-69.6-32-134.2-68.2-190.4l-79.8 53.4-8.8-13.4 79.8-53.4c-5.2-7.2-10.8-14.6-16.6-22zM958.4 409c-0.4-3.6-0.6-7.2-1-10.8l1 10.8zM888.4 204.8c-2.4-3.6-4.8-7.2-7.2-10.8l7.2 10.8zM432.535 888.925l18.73-94.157-15.693-3.122-18.73 94.157 15.693 3.122zM591.656 7.050l-18.73 94.157 15.693 3.122 18.73-94.157-15.693-3.122zM389.628 879.11l13.939-45.931-15.31-4.646-13.939 45.931 15.31 4.646zM634.434 17.113l-13.939 45.931 15.31 4.646 13.939-45.931-15.31-4.646zM348.014 864.901l36.739-88.694-14.782-6.123-36.739 88.694 14.782 6.123zM676.123 31.035l-36.739 88.694 14.782 6.123 36.739-88.694-14.782-6.123zM293.62 839.341l14.11 7.544 22.632-42.331-14.11-7.544-22.632 42.331zM730.101 56.711l-14.11-7.544-22.632 42.331 14.11 7.544 22.632-42.331zM120.601 666.174l42.336-22.622-7.541-14.112-42.336 22.622 7.541 14.112zM903.244 229.805l-42.336 22.622 7.541 14.112 42.336-22.622-7.541-14.112zM183.811 575.377l-88.694 36.739 6.123 14.782 88.694-36.739-6.123-14.782zM840.32 320.699l88.694-36.739-6.123-14.782-88.694 36.739 6.123 14.782zM85.543 585.613l45.936-13.93-4.643-15.312-45.936 13.93 4.643 15.312zM938.308 310.333l-45.936 13.93 4.643 15.312 45.936-13.93-4.643-15.312zM74.069 543.218l94.157-18.73-3.122-15.693-94.157 18.73 3.122 15.693zM949.741 352.757l-94.157 18.73 3.122 15.693 94.157-18.73-3.122-15.693zM70.965 368.452l94.157 18.73 3.122-15.693-94.157-18.73-3.122 15.693zM952.842 527.573l-94.157-18.73-3.122 15.693 94.157 18.73 3.122-15.693zM80.974 325.486l45.931 13.939 4.646-15.31-45.931-13.939-4.646 15.31zM942.969 570.293l-45.931-13.939-4.646 15.31 45.931 13.939 4.646-15.31zM101.142 269.088l-6.123 14.782 88.694 36.739 6.123-14.782-88.694-36.739zM922.794 626.769l6.122-14.782-88.694-36.73-6.122 14.782 88.694 36.73zM120.824 229.733l-7.544 14.11 42.331 22.632 7.544-14.11-42.331-22.632zM903.455 666.215l7.544-14.11-42.331-22.632-7.544 14.11 42.331 22.632zM307.878 49.154l-14.11 7.542 22.627 42.331 14.11-7.542-22.627-42.331zM716.073 846.926l14.112-7.541-22.622-42.336-14.112 7.541 22.622 42.336zM333.267 37.201l36.739 88.694 14.782-6.123-36.739-88.694-14.782 6.123zM690.884 858.89l-36.739-88.694-14.782 6.123 36.739 88.694 14.782-6.123zM389.634 16.972l-15.31 4.645 13.934 45.931 15.31-4.645-13.934-45.931zM634.349 879.118l15.312-4.642-13.925-45.936-15.312 4.642 13.925 45.936zM432.472 7.161l-15.693 3.122 18.73 94.157 15.693-3.122-18.73-94.157zM591.536 889.031l15.693-3.122-18.73-94.157-15.693 3.122 18.73 94.157z" />
<glyph unicode="&#xeade;" glyph-name="opera" d="M1024 448v0 0c0-151.6-66-288-170.8-381.6-131.4-64-253.8-19.2-294.2 8.8 129 28.2 226.4 184.2 226.4 372.8s-97.4 344.6-226.4 373c40.6 28 163 72.8 294.2 8.8 104.8-93.8 170.8-230.2 170.8-381.8v0 0zM343.4 736.6c-56.6-66.8-93.2-165.6-95.6-276.6 0-0.2 0-23.8 0-24.2 2.4-110.8 39.2-209.6 95.8-276.4 73.4-95.4 182.6-155.8 304.6-155.8 75 0 145.2 22.8 205.2 62.6-90.8-81-210.4-130.2-341.4-130.2-8.2 0-16.4 0.2-24.4 0.6-271.4 12.8-487.6 236.8-487.6 511.4 0 282.8 229.2 512 512 512 0.6 0 1.2 0 2 0 130.4-0.4 249.2-49.6 339.4-130.4-60 39.8-130.2 62.8-205.2 62.8-122 0-231.2-60.4-304.8-155.8z" />
<glyph unicode="&#xeadf;" glyph-name="file-pdf" d="M842.012 370.52c-13.648 13.446-43.914 20.566-89.972 21.172-31.178 0.344-68.702-2.402-108.17-7.928-17.674 10.198-35.892 21.294-50.188 34.658-38.462 35.916-70.568 85.772-90.576 140.594 1.304 5.12 2.414 9.62 3.448 14.212 0 0 21.666 123.060 15.932 164.666-0.792 5.706-1.276 7.362-2.808 11.796l-1.882 4.834c-5.894 13.592-17.448 27.994-35.564 27.208l-10.916 0.344c-20.202 0-36.664-10.332-40.986-25.774-13.138-48.434 0.418-120.892 24.98-214.738l-6.288-15.286c-17.588-42.876-39.63-86.060-59.078-124.158l-2.528-4.954c-20.46-40.040-39.026-74.028-55.856-102.822l-17.376-9.188c-1.264-0.668-31.044-16.418-38.028-20.644-59.256-35.38-98.524-75.542-105.038-107.416-2.072-10.17-0.53-23.186 10.014-29.212l16.806-8.458c7.292-3.652 14.978-5.502 22.854-5.502 42.206 0 91.202 52.572 158.698 170.366 77.93 25.37 166.652 46.458 244.412 58.090 59.258-33.368 132.142-56.544 178.142-56.544 8.168 0 15.212 0.78 20.932 2.294 8.822 2.336 16.258 7.368 20.792 14.194 8.926 13.432 10.734 31.932 8.312 50.876-0.72 5.622-5.21 12.574-10.068 17.32zM211.646 145.952c7.698 21.042 38.16 62.644 83.206 99.556 2.832 2.296 9.808 8.832 16.194 14.902-47.104-75.124-78.648-105.066-99.4-114.458zM478.434 760.314c13.566 0 21.284-34.194 21.924-66.254s-6.858-54.56-16.158-71.208c-7.702 24.648-11.426 63.5-11.426 88.904 0 0-0.566 48.558 5.66 48.558v0zM398.852 322.506c9.45 16.916 19.282 34.756 29.33 53.678 24.492 46.316 39.958 82.556 51.478 112.346 22.91-41.684 51.444-77.12 84.984-105.512 4.186-3.542 8.62-7.102 13.276-10.65-68.21-13.496-127.164-29.91-179.068-49.862v0zM828.902 326.348c-4.152-2.598-16.052-4.1-23.708-4.1-24.708 0-55.272 11.294-98.126 29.666 16.468 1.218 31.562 1.838 45.102 1.838 24.782 0 32.12 0.108 56.35-6.072 24.228-6.18 24.538-18.734 20.382-21.332v0zM917.806 730.924c-22.21 30.292-53.174 65.7-87.178 99.704s-69.412 64.964-99.704 87.178c-51.574 37.82-76.592 42.194-90.924 42.194h-496c-44.112 0-80-35.888-80-80v-864c0-44.112 35.886-80 80-80h736c44.112 0 80 35.888 80 80v624c0 14.332-4.372 39.35-42.194 90.924v0zM785.374 785.374c30.7-30.7 54.8-58.398 72.58-81.374h-153.954v153.946c22.982-17.78 50.678-41.878 81.374-72.572v0zM896 16c0-8.672-7.328-16-16-16h-736c-8.672 0-16 7.328-16 16v864c0 8.672 7.328 16 16 16 0 0 495.956 0.002 496 0v-224c0-17.672 14.324-32 32-32h224v-624z" />
</font>
</defs>
</svg>
