<svg xmlns="http://www.w3.org/2000/svg" width="72" height="72" viewBox="0 0 72 72">
    <g fill="none" fill-rule="evenodd">
        <path fill="#F4F4F4" d="M-1054-1163H866V937h-1920z"/>
        <g fill-rule="nonzero">
            <path fill="#26B7BC" d="M37.822 16a2 2 0 1 1-4 0v-6a2 2 0 1 1 4 0v6zM47.104 20.43a2 2 0 0 1-3.064-2.571l3.856-4.596a2 2 0 0 1 3.064 2.57l-3.856 4.597zM24.325 20.43a2 2 0 0 0 3.064-2.571l-3.857-4.596a2 2 0 0 0-3.064 2.57l3.857 4.597z"/>
            <path fill="#AFC0C1" d="M37.875 27a2 2 0 0 1 1.385.557l13.125 12.6A2 2 0 0 1 53 41.6v19.8c0 3.111-2.592 5.6-5.75 5.6h-22.5C21.592 67 19 64.511 19 61.4V32.6c0-3.111 2.592-5.6 5.75-5.6h13.125zm-.805 4H24.75c-.984 0-1.75.735-1.75 1.6v28.8c0 .865.766 1.6 1.75 1.6h22.5c.984 0 1.75-.735 1.75-1.6V42.452L37.07 31z"/>
            <path fill="#AFC0C1" d="M39.875 39.6H51a2 2 0 1 1 0 4H37.875a2 2 0 0 1-2-2V29a2 2 0 1 1 4 0v10.6z"/>
            <path fill="#26B7BC" d="M28.5 50.3a1.5 1.5 0 0 1 0-3h12.304a1.5 1.5 0 0 1 0 3H28.5zM28.5 57.5a1.5 1.5 0 0 1 0-3h9.375a1.5 1.5 0 0 1 0 3H28.5z"/>
        </g>
    </g>
</svg>
