<svg width="54" height="54" viewBox="0 0 54 54" fill="none" xmlns="http://www.w3.org/2000/svg">
<path fill-rule="evenodd" clip-rule="evenodd" d="M13.435 13.435C6.02727 20.8428 6.02657 32.8966 13.435 40.3051C20.8428 47.7128 32.8973 47.7128 40.3051 40.3051C47.7135 32.8966 47.7128 20.8428 40.3051 13.435C32.8966 6.02657 20.8435 6.02657 13.435 13.435Z" fill="#00BBD3"/>
<path fill-rule="evenodd" clip-rule="evenodd" d="M38.2108 38.2119C31.9574 44.4653 21.7817 44.4653 15.5283 38.2119C9.27418 31.9578 9.27487 21.7827 15.5283 15.5293C21.7824 9.27526 31.9567 9.27526 38.2108 15.5293C44.4642 21.7827 44.4649 31.9578 38.2108 38.2119Z" fill="white"/>
<path fill-rule="evenodd" clip-rule="evenodd" d="M26.8692 18.6454C26.0513 18.6454 25.3889 19.3078 25.3889 20.1257L25.3889 25.3895L20.1252 25.3895C19.3072 25.3895 18.6449 26.0518 18.6449 26.8698C18.6449 27.6877 19.3079 28.3507 20.1252 28.35L25.3889 28.35L25.3896 33.6145C25.3889 34.4317 26.052 35.0948 26.8699 35.0948C27.2789 35.0948 27.6481 34.9294 27.9161 34.6614C28.1841 34.3934 28.3502 34.0235 28.3502 33.6145L28.3495 28.35L33.614 28.3507C34.0229 28.3507 34.3928 28.1846 34.6609 27.9166C34.9289 27.6486 35.0943 27.2794 35.0943 26.8704C35.0943 26.0525 34.4312 25.3895 33.614 25.3902L28.3495 25.3895L28.3495 20.1257C28.3502 19.3084 27.6872 18.6454 26.8692 18.6454" fill="#00BBD3"/>
</svg>
