<svg width="28" height="22" viewBox="0 0 28 22" fill="none" xmlns="http://www.w3.org/2000/svg">
<path d="M10.582 0C9.52994 0 8.62772 0.694802 8.20312 1.64062L8.04297 2H3C1.35494 2 0 3.35494 0 5V19C0 20.6451 1.35494 22 3 22H25C26.6451 22 28 20.6451 28 19V5C28 3.35494 26.6451 2 25 2H19.9609L19.7969 1.64062V1.63672C19.371 0.694469 18.4706 0 17.418 0H14H10.582ZM10.582 2H14H17.418C17.5926 2 17.8147 2.1146 17.9727 2.46094L18.6641 4H25C25.5629 4 26 4.43706 26 5V19C26 19.5629 25.5629 20 25 20H3C2.43706 20 2 19.5629 2 19V5C2 4.43706 2.43706 4 3 4H9.33594L10.0273 2.46094C10.1827 2.11476 10.4101 2 10.582 2ZM4 6V8H6V6H4ZM14 6C10.6981 6 8 8.69814 8 12C8 15.3019 10.6981 18 14 18C17.3019 18 20 15.3019 20 12C20 8.69814 17.3019 6 14 6ZM14 8C16.221 8 18 9.77902 18 12C18 14.221 16.221 16 14 16C11.779 16 10 14.221 10 12C10 9.77902 11.779 8 14 8Z" fill="#00BBD3"/>
</svg>
