<svg width="38" height="39" viewBox="0 0 38 39" fill="none" xmlns="http://www.w3.org/2000/svg">
<path fill-rule="evenodd" clip-rule="evenodd" d="M19 0.935028C8.52384 0.935028 0 9.45789 0 19.935C0 30.4112 8.52384 38.935 19 38.935C29.4771 38.935 38 30.4112 38 19.935C38 9.45789 29.4771 0.935028 19 0.935028Z" fill="#00BBD3"/>
<path fill-rule="evenodd" clip-rule="evenodd" d="M18.9993 35.974C10.1557 35.974 2.96033 28.7787 2.96033 19.935C2.96033 11.0904 10.1557 3.89609 18.9993 3.89609C27.8439 3.89609 35.0382 11.0904 35.0382 19.935C35.0382 28.7787 27.8439 35.974 18.9993 35.974Z" fill="white"/>
<path fill-rule="evenodd" clip-rule="evenodd" d="M24.8151 14.1188C24.2367 13.5404 23.3 13.5404 22.7217 14.1188L18.9996 17.8408L15.2776 14.1188C14.6992 13.5404 13.7625 13.5404 13.1842 14.1188C12.6058 14.6971 12.6058 15.6348 13.1842 16.2122L16.9062 19.9342L13.1842 23.6573C12.6058 24.2347 12.6058 25.1723 13.1842 25.7507C13.4734 26.0399 13.8514 26.184 14.2304 26.184C14.6094 26.184 14.9884 26.0399 15.2776 25.7507L18.9996 22.0277L22.7217 25.7507C23.0109 26.0399 23.3899 26.184 23.7689 26.184C24.1479 26.184 24.5259 26.0399 24.8151 25.7507C25.3935 25.1723 25.3935 24.2347 24.8151 23.6573L21.0931 19.9342L24.8151 16.2122C25.3935 15.6348 25.3935 14.6971 24.8151 14.1188" fill="#00BBD3"/>
</svg>
